<?xml version="1.0" encoding="utf-8"?>
<!-- Generator: Adobe Illustrator 16.0.0, SVG Export Plug-In . SVG Version: 6.00 Build 0)  -->
<!DOCTYPE svg PUBLIC "-//W3C//DTD SVG 1.1//EN" "http://www.w3.org/Graphics/SVG/1.1/DTD/svg11.dtd">
<svg version="1.1" id="Calque_1" xmlns="http://www.w3.org/2000/svg" xmlns:xlink="http://www.w3.org/1999/xlink" x="0px" y="0px"
	 width="2000px" height="1500px" viewBox="0 0 2000 1500" enable-background="new 0 0 2000 1500" xml:space="preserve">
<rect x="503" y="825" fill="#E8E5D9" width="194" height="49"/>
<rect x="765" y="825" fill="#E8E5D9" width="194" height="49"/>
<rect x="0" y="536" fill="#E8E5D9" width="289" height="36"/>
<g>
	<path fill="#E8E5D9" d="M1652.422,875.615h-241.729v-47.698h98.931v-280.89l-92.157,50.054l-18.845-43.575l122.484-64.481h45.344
		v338.893h85.975v47.698H1652.422z"/>
</g>
<g>
	<path fill="#E8E5D9" d="M1901.223,648.097c0,39.842-4.713,74.102-14.128,102.778c-9.422,28.682-23.342,52.25-41.771,70.709
		c-18.428,18.459-41.261,32.069-68.489,40.83c-27.233,8.762-58.662,13.141-94.289,13.141h-33.477v-47.558h37.162
		c26.413,0,49.24-2.706,68.49-8.134c19.242-5.422,35.267-13.398,48.063-23.935c12.795-10.53,22.574-23.358,29.332-38.484
		c6.756-15.12,10.951-32.382,12.593-51.78l1.229-12.827c-12.899,7.72-27.747,13.923-44.533,18.615
		c-16.792,4.692-35.014,7.04-54.67,7.04c-20.27,0-38.084-3.021-53.439-9.072c-15.356-6.047-28.104-14.495-38.237-25.344
		c-10.136-10.843-17.767-23.725-22.882-38.64c-5.12-14.91-7.678-31.13-7.678-48.651c0-18.978,3.379-36.708,10.135-53.188
		c6.758-16.475,16.226-30.818,28.41-43.021c12.18-12.202,26.769-21.847,43.767-28.94c16.991-7.089,35.728-10.639,56.204-10.639
		c19.857,0,38.236,3.34,55.13,10.013c16.893,6.678,31.479,17.472,43.766,32.382c12.285,14.915,21.906,34.259,28.87,58.038
		C1897.738,585.209,1901.223,614.102,1901.223,648.097z M1760.558,505.74c-11.471,0-22.064,1.932-31.788,5.788
		c-9.728,3.863-18.121,9.494-25.185,16.896c-7.063,7.405-12.646,16.532-16.738,27.376c-4.1,10.848-6.143,23.26-6.143,37.23
		c0,12.727,1.482,24.091,4.453,34.104c2.965,10.012,7.572,18.513,13.82,25.5c6.243,6.991,14.281,12.357,24.109,16.112
		s21.498,5.632,35.013,5.632c7.573,0,15.404-0.729,23.495-2.19c8.086-1.457,15.971-3.441,23.648-5.944
		c7.68-2.503,14.996-5.421,21.961-8.761c6.957-3.334,13.205-6.883,18.733-10.638c0-26.907-1.948-49.38-5.836-67.423
		c-3.892-18.039-9.521-32.539-16.892-43.49c-7.371-10.95-16.332-18.718-26.875-23.31
		C1785.791,508.037,1773.865,505.74,1760.558,505.74z"/>
</g>
<rect x="1219" y="828" fill="#E8E5D9" width="194" height="48"/>
<rect x="1722" y="827" fill="#E8E5D9" width="287" height="47"/>
<path fill="#E8E5D9" d="M1273.629,830.809c0,0-25.629-87.787-114.629-79.276V932c0,0,56.611,8.895,114.441-57.063"/>
<g>
	<g>
		<path fill="#E8E5D9" d="M512.725,873.615H259.219v-45.315l99.519-97.605c16.291-15.877,29.54-29.63,39.749-41.25
			c10.204-11.62,18.154-22.223,23.85-31.809c5.69-9.586,9.519-18.638,11.482-27.161c1.96-8.521,2.944-17.72,2.944-27.596
			c0-9.297-1.279-18.156-3.828-26.58c-2.553-8.425-6.479-15.832-11.777-22.224c-5.3-6.391-12.173-11.424-20.61-15.104
			c-8.441-3.677-18.549-5.52-30.326-5.52c-16.296,0-31.113,3.585-44.459,10.748c-13.352,7.167-25.616,16.462-36.805,27.888
			L260.69,538.68c14.523-15.105,31.256-27.206,50.201-36.312c18.939-9.101,40.972-13.652,66.1-13.652
			c17.077,0,32.631,2.519,46.667,7.553c14.032,5.038,26.154,12.3,36.363,21.787c10.204,9.491,18.108,21.11,23.702,34.857
			c5.595,13.753,8.392,29.244,8.392,46.479c0,14.525-1.964,27.987-5.889,40.378c-3.929,12.396-9.863,24.742-17.813,37.038
			c-7.948,12.3-17.96,25.032-30.031,38.199c-12.071,13.172-26.353,27.597-42.841,43.283l-69.78,67.104h186.965V873.615z"/>
	</g>
	<path fill="#E8E5D9" d="M958.245,827.809c0,0,24.755-87.787,113.755-79.276V929c0,0-56.175,8.895-114.005-57.063L958.245,827.809z"
		/>
	<path fill="#E8E5D9" d="M1132,796.616c0,3.525-2.856,6.384-6.383,6.384h-64.233c-3.525,0-6.384-2.857-6.384-6.384v-0.233
		c0-3.525,2.857-6.383,6.384-6.383h64.233c3.525,0,6.383,2.856,6.383,6.383V796.616z"/>
	<path fill="#E8E5D9" d="M1132,878.616c0,3.525-2.856,6.384-6.383,6.384h-64.233c-3.525,0-6.384-2.857-6.384-6.384v-0.233
		c0-3.525,2.857-6.383,6.384-6.383h64.233c3.525,0,6.383,2.856,6.383,6.383V878.616z"/>
	<path fill="#E8E5D9" d="M858.457,620.223c-6.383-22.414-15.477-40.904-27.272-55.465c-11.8-14.563-26.017-25.326-42.65-32.299
		C771.896,525.488,753.427,522,733.117,522c-23.406,0-43.91,4.28-61.509,12.84c-17.603,8.563-32.255,20.649-43.957,36.271
		c-11.705,15.62-20.504,34.376-26.401,56.259c-5.903,21.889-8.851,46.067-8.851,72.542c0,30.711,3.191,57.278,9.575,79.69
		c6.383,22.417,15.473,40.862,27.273,55.333c11.796,14.474,25.275,25.196,41.914,32.166c7.483,3.138,14.838,5.563,22.838,7.288
		v-49.146c-41-18.342-70.334-68.62-70.334-127.78c0-74.677,47.69-135.213,106.067-135.213c58.376,0,105.144,60.536,105.144,135.213
		c0,60.227-30.877,111.247-73.877,128.74v47.687c10-2.13,19.063-5.179,27.229-9.171c17.503-8.559,32.526-20.649,44.327-36.271
		c11.796-15.621,20.786-34.326,26.588-56.127c5.803-21.796,8.796-45.934,8.796-72.41
		C867.939,669.201,864.841,642.64,858.457,620.223z"/>
</g>
</svg>
