<?xml version="1.0" encoding="utf-8"?>
<!-- Generator: Adobe Illustrator 16.0.0, SVG Export Plug-In . SVG Version: 6.00 Build 0)  -->
<!DOCTYPE svg PUBLIC "-//W3C//DTD SVG 1.1 Tiny//EN" "http://www.w3.org/Graphics/SVG/1.1/DTD/svg11-tiny.dtd">
<svg version="1.1" baseProfile="tiny" id="Calque_1"
	 xmlns="http://www.w3.org/2000/svg" xmlns:xlink="http://www.w3.org/1999/xlink" x="0px" y="0px" width="595.279px"
	 height="841.891px" viewBox="0 0 595.279 841.891" xml:space="preserve">
<rect x="33.913" y="220.984" fill="none" width="54.879" height="59.756"/>
<text transform="matrix(1 0 0 1 33.9128 275.4158)" fill="#F4D956" font-family="'BodoniMT'" font-size="72">J</text>
<rect x="89.251" y="220.984" fill="none" width="64.634" height="59.756"/>
<text transform="matrix(1 0 0 1 88.2502 275.4158)" fill="#F4D956" font-family="'BodoniMT'" font-size="72">O</text>
<rect x="154.344" y="220.984" fill="none" width="64.634" height="59.756"/>
<text transform="matrix(1 0 0 1 144.343 275.4158)" fill="#F4D956" font-family="'BodoniMT'" font-size="72">Y</text>
<rect x="219.436" y="220.984" fill="none" width="64.633" height="59.756"/>
<text transform="matrix(1 0 0 1 210.4363 275.4158)" fill="#F4D956" font-family="'BodoniMT'" font-size="72">E</text>
<rect x="284.528" y="220.984" fill="none" width="64.633" height="59.756"/>
<text transform="matrix(1 0 0 1 273.5286 275.4158)" fill="#F4D956" font-family="'BodoniMT'" font-size="72">U</text>
<text transform="matrix(1 0 0 1 336.5286 275.4158)" fill="#F4D956" font-family="'BodoniMT'" font-size="72">X</text>
<rect x="271.688" y="308.486" fill="none" width="63.271" height="62.195"/>
<text transform="matrix(1 0 0 1 271.6877 362.9177)" fill="#F4D956" font-family="'BodoniMT'" font-size="72">N</text>
<text transform="matrix(1 0 0 1 329.6399 362.9177)" fill="#F4D956" font-family="'BodoniMT'" font-size="72">O</text>
<text transform="matrix(1 0 0 1 386.7317 362.9177)" fill="#F4D956" font-family="'BodoniMT'" font-size="72">E</text>
<rect x="454.002" y="308.486" fill="none" width="63.271" height="62.195"/>
<text transform="matrix(1 0 0 1 448.0032 362.9177)" fill="#F4D956" font-family="'BodoniMT'" font-size="72">L</text>
<image width="400" height="396" xlink:href="../christmas-hat-psd-438169.png"  transform="matrix(0.1184 0 0 0.1377 89.2507 211.344)">
</image>
</svg>
