<?xml version="1.0" encoding="utf-8"?>
<!-- Generator: Adobe Illustrator 16.0.0, SVG Export Plug-In . SVG Version: 6.00 Build 0)  -->
<!DOCTYPE svg PUBLIC "-//W3C//DTD SVG 1.1 Tiny//EN" "http://www.w3.org/Graphics/SVG/1.1/DTD/svg11-tiny.dtd">
<svg version="1.1" baseProfile="tiny" id="Calque_1"
	 xmlns="http://www.w3.org/2000/svg" xmlns:xlink="http://www.w3.org/1999/xlink" x="0px" y="0px" width="2000px" height="1500px"
	 viewBox="0 0 2000 1500" xml:space="preserve">
<polygon points="664,357 664,349 681.658,349 681.64,357 "/>
<ellipse fill="#F16859" stroke="#000000" stroke-miterlimit="10" cx="673.97" cy="394.784" rx="35.694" ry="38.31"/>
<g>
	<g>
		<line fill="none" stroke="#000000" stroke-width="2" stroke-miterlimit="10" x1="638.57" y1="402.5" x2="663.607" y2="384.472"/>
		
			<line fill="none" stroke="#000000" stroke-width="2" stroke-miterlimit="10" x1="663.607" y1="384.472" x2="673.97" y2="393.486"/>
	</g>
	<line fill="none" stroke="#000000" stroke-width="2" stroke-miterlimit="10" x1="673.97" y1="393.486" x2="685.714" y2="384.472"/>
	<line fill="none" stroke="#000000" stroke-width="2" stroke-miterlimit="10" x1="685.714" y1="384.472" x2="709.7" y2="400.809"/>
</g>
<circle cx="665.343" cy="404.421" r="7.032"/>
<circle cx="673.881" cy="419.696" r="4.186"/>
<circle cx="684.569" cy="401.344" r="3.955"/>
<circle cx="693.863" cy="411.566" r="3.955"/>
<polygon points="459,511 459,501 481.008,501 480.984,511 "/>
<ellipse fill="#F1B859" stroke="#000000" stroke-miterlimit="10" cx="471.308" cy="558.762" rx="45.032" ry="48.332"/>
<g>
	<g>
		
			<line fill="none" stroke="#000000" stroke-width="2" stroke-miterlimit="10" x1="426.647" y1="568.496" x2="458.234" y2="545.753"/>
		
			<line fill="none" stroke="#000000" stroke-width="2" stroke-miterlimit="10" x1="458.234" y1="545.753" x2="471.309" y2="557.125"/>
	</g>
	
		<line fill="none" stroke="#000000" stroke-width="2" stroke-miterlimit="10" x1="471.309" y1="557.125" x2="486.125" y2="545.753"/>
	
		<line fill="none" stroke="#000000" stroke-width="2" stroke-miterlimit="10" x1="486.125" y1="545.753" x2="516.386" y2="566.362"/>
</g>
<circle cx="460.424" cy="570.92" r="8.872"/>
<circle cx="471.195" cy="590.191" r="5.28"/>
<circle cx="484.68" cy="567.037" r="4.989"/>
<circle cx="496.405" cy="579.935" r="4.989"/>
<polygon points="673,623 673,613 695.008,613 694.984,623 "/>
<ellipse fill="#2EB2FF" stroke="#000000" stroke-miterlimit="10" cx="685.308" cy="670.762" rx="45.032" ry="48.332"/>
<g>
	<g>
		
			<line fill="none" stroke="#000000" stroke-width="2" stroke-miterlimit="10" x1="640.647" y1="680.496" x2="672.234" y2="657.753"/>
		
			<line fill="none" stroke="#000000" stroke-width="2" stroke-miterlimit="10" x1="672.234" y1="657.753" x2="685.309" y2="669.125"/>
	</g>
	
		<line fill="none" stroke="#000000" stroke-width="2" stroke-miterlimit="10" x1="685.309" y1="669.125" x2="700.125" y2="657.753"/>
	
		<line fill="none" stroke="#000000" stroke-width="2" stroke-miterlimit="10" x1="700.125" y1="657.753" x2="730.386" y2="678.362"/>
</g>
<circle cx="674.424" cy="682.92" r="8.872"/>
<circle cx="685.195" cy="702.191" r="5.28"/>
<circle cx="698.68" cy="679.037" r="4.989"/>
<circle cx="710.405" cy="691.935" r="4.989"/>
<polygon points="830,479 830,469 852.008,469 851.984,479 "/>
<ellipse fill="#2EB256" stroke="#000000" stroke-miterlimit="10" cx="842.308" cy="526.762" rx="45.032" ry="48.332"/>
<g>
	<g>
		
			<line fill="none" stroke="#000000" stroke-width="2" stroke-miterlimit="10" x1="797.647" y1="536.496" x2="829.234" y2="513.753"/>
		
			<line fill="none" stroke="#000000" stroke-width="2" stroke-miterlimit="10" x1="829.234" y1="513.753" x2="842.309" y2="525.125"/>
	</g>
	
		<line fill="none" stroke="#000000" stroke-width="2" stroke-miterlimit="10" x1="842.309" y1="525.125" x2="857.125" y2="513.753"/>
	
		<line fill="none" stroke="#000000" stroke-width="2" stroke-miterlimit="10" x1="857.125" y1="513.753" x2="887.386" y2="534.362"/>
</g>
<circle cx="831.424" cy="538.92" r="8.872"/>
<circle cx="842.195" cy="558.191" r="5.28"/>
<circle cx="855.68" cy="535.037" r="4.989"/>
<circle cx="867.405" cy="547.935" r="4.989"/>
</svg>
