<?xml version="1.0" encoding="utf-8"?>
<!-- Generator: Adobe Illustrator 16.0.0, SVG Export Plug-In . SVG Version: 6.00 Build 0)  -->
<!DOCTYPE svg PUBLIC "-//W3C//DTD SVG 1.1//EN" "http://www.w3.org/Graphics/SVG/1.1/DTD/svg11.dtd">
<svg version="1.1" id="Calque_1" xmlns="http://www.w3.org/2000/svg" xmlns:xlink="http://www.w3.org/1999/xlink" x="0px" y="0px"
	 width="595.28px" height="841.89px" viewBox="0 0 595.28 841.89" enable-background="new 0 0 595.28 841.89" xml:space="preserve">
<linearGradient id="SVGID_1_" gradientUnits="userSpaceOnUse" x1="935.1348" y1="1098.3301" x2="-313.0364" y2="-149.8411">
	<stop  offset="0" style="stop-color:#1A2351"/>
	<stop  offset="0.8" style="stop-color:#0D1034"/>
</linearGradient>
<rect x="-403.585" y="-59.293" fill="url(#SVGID_1_)" width="1429.268" height="1067.074"/>
<linearGradient id="SVGID_2_" gradientUnits="userSpaceOnUse" x1="221.8994" y1="159.2734" x2="190.4442" y2="127.8182">
	<stop  offset="0" style="stop-color:#F8F4AB"/>
	<stop  offset="0.8" style="stop-color:#FFCE14"/>
</linearGradient>
<polygon fill="url(#SVGID_2_)" points="206.171,118.248 213.13,132.348 228.69,134.609 217.431,145.585 220.089,161.083 
	206.171,153.766 192.253,161.083 194.911,145.585 183.651,134.609 199.212,132.348 "/>
<linearGradient id="SVGID_3_" gradientUnits="userSpaceOnUse" x1="115.6016" y1="642.2188" x2="84.1464" y2="610.7635">
	<stop  offset="0" style="stop-color:#F8F4AB"/>
	<stop  offset="0.8" style="stop-color:#FFCE14"/>
</linearGradient>
<polygon fill="url(#SVGID_3_)" points="99.873,601.193 106.832,615.294 122.393,617.555 111.133,628.531 113.791,644.028 
	99.873,636.711 85.955,644.028 88.613,628.531 77.354,617.555 92.914,615.294 "/>
<linearGradient id="SVGID_4_" gradientUnits="userSpaceOnUse" x1="404.2109" y1="308.2412" x2="372.7557" y2="276.786">
	<stop  offset="0" style="stop-color:#F8F4AB"/>
	<stop  offset="0.8" style="stop-color:#FFCE14"/>
</linearGradient>
<polygon fill="url(#SVGID_4_)" points="388.482,267.215 395.441,281.315 411.002,283.577 399.742,294.552 402.4,310.05 
	388.482,302.733 374.564,310.05 377.223,294.552 365.963,283.577 381.523,281.315 "/>
<linearGradient id="SVGID_5_" gradientUnits="userSpaceOnUse" x1="179.4111" y1="742.5811" x2="147.9559" y2="711.1259">
	<stop  offset="0" style="stop-color:#F8F4AB"/>
	<stop  offset="0.8" style="stop-color:#FFCE14"/>
</linearGradient>
<polygon fill="url(#SVGID_5_)" points="163.684,701.557 170.643,715.656 186.204,717.918 174.944,728.893 177.602,744.391 
	163.684,737.074 149.766,744.391 152.424,728.893 141.165,717.918 156.725,715.656 "/>
<linearGradient id="SVGID_6_" gradientUnits="userSpaceOnUse" x1="551.7725" y1="387.6792" x2="520.3173" y2="356.224">
	<stop  offset="0" style="stop-color:#F8F4AB"/>
	<stop  offset="0.8" style="stop-color:#FFCE14"/>
</linearGradient>
<polygon fill="url(#SVGID_6_)" points="536.044,346.654 543.003,360.754 558.563,363.015 547.304,373.991 549.962,389.488 
	536.044,382.171 522.126,389.488 524.784,373.991 513.524,363.015 529.085,360.754 "/>
<linearGradient id="SVGID_7_" gradientUnits="userSpaceOnUse" x1="545.1279" y1="172.146" x2="513.6727" y2="140.6908">
	<stop  offset="0" style="stop-color:#F8F4AB"/>
	<stop  offset="0.8" style="stop-color:#FFCE14"/>
</linearGradient>
<polygon fill="url(#SVGID_7_)" points="529.4,131.121 536.359,145.221 551.92,147.482 540.66,158.458 543.318,173.956 
	529.4,166.639 515.482,173.956 518.141,158.458 506.881,147.482 522.441,145.221 "/>
<linearGradient id="SVGID_8_" gradientUnits="userSpaceOnUse" x1="522.6094" y1="810.3672" x2="491.1535" y2="778.9113">
	<stop  offset="0" style="stop-color:#F8F4AB"/>
	<stop  offset="0.8" style="stop-color:#FFCE14"/>
</linearGradient>
<polygon fill="url(#SVGID_8_)" points="506.881,769.342 513.84,783.442 529.4,785.703 518.141,796.68 520.799,812.177 
	506.881,804.859 492.963,812.177 495.621,796.68 484.361,785.703 499.922,783.442 "/>
<linearGradient id="SVGID_9_" gradientUnits="userSpaceOnUse" x1="77.7124" y1="810.3682" x2="46.2565" y2="778.9123">
	<stop  offset="0" style="stop-color:#F8F4AB"/>
	<stop  offset="0.8" style="stop-color:#FFCE14"/>
</linearGradient>
<polygon fill="url(#SVGID_9_)" points="61.983,769.342 68.942,783.442 84.503,785.703 73.243,796.68 75.901,812.177 61.983,804.859 
	48.065,812.177 50.724,796.68 39.464,785.703 55.024,783.442 "/>
<linearGradient id="SVGID_10_" gradientUnits="userSpaceOnUse" x1="100.231" y1="329.6577" x2="68.7758" y2="298.2025">
	<stop  offset="0" style="stop-color:#F8F4AB"/>
	<stop  offset="0.8" style="stop-color:#FFCE14"/>
</linearGradient>
<polygon fill="url(#SVGID_10_)" points="84.503,288.633 91.462,302.733 107.022,304.994 95.763,315.97 98.421,331.467 
	84.503,324.15 70.585,331.467 73.243,315.97 61.983,304.994 77.544,302.733 "/>
<linearGradient id="SVGID_11_" gradientUnits="userSpaceOnUse" x1="286.8862" y1="398.7925" x2="246.9098" y2="358.8161">
	<stop  offset="0" style="stop-color:#F8F4AB"/>
	<stop  offset="0.8" style="stop-color:#FFCE14"/>
</linearGradient>
<polygon fill="url(#SVGID_11_)" points="266.897,346.654 275.742,364.574 295.518,367.447 281.208,381.396 284.586,401.092 
	266.897,391.793 249.209,401.092 252.587,381.396 238.277,367.447 258.053,364.574 "/>
<linearGradient id="SVGID_12_" gradientUnits="userSpaceOnUse" x1="335.3799" y1="696.167" x2="295.4035" y2="656.1906">
	<stop  offset="0" style="stop-color:#F8F4AB"/>
	<stop  offset="0.8" style="stop-color:#FFCE14"/>
</linearGradient>
<polygon fill="url(#SVGID_12_)" points="315.391,644.028 324.235,661.948 344.012,664.822 329.701,678.771 333.08,698.467 
	315.391,689.168 297.703,698.467 301.081,678.771 286.771,664.822 306.547,661.948 "/>
<linearGradient id="SVGID_13_" gradientUnits="userSpaceOnUse" x1="117.3828" y1="81.8584" x2="96.662" y2="61.1375">
	<stop  offset="0" style="stop-color:#F8F4AB"/>
	<stop  offset="0.8" style="stop-color:#FFCE14"/>
</linearGradient>
<polygon fill="url(#SVGID_13_)" points="107.022,54.833 111.606,64.122 121.857,65.611 114.439,72.841 116.19,83.05 107.022,78.23 
	97.854,83.05 99.605,72.841 92.188,65.611 102.438,64.122 "/>
<linearGradient id="SVGID_14_" gradientUnits="userSpaceOnUse" x1="102.5488" y1="188.1074" x2="81.828" y2="167.3866">
	<stop  offset="0" style="stop-color:#F8F4AB"/>
	<stop  offset="0.8" style="stop-color:#FFCE14"/>
</linearGradient>
<polygon fill="url(#SVGID_14_)" points="92.188,161.083 96.772,170.371 107.022,171.86 99.605,179.09 101.356,189.299 
	92.188,184.479 83.02,189.299 84.771,179.09 77.354,171.86 87.604,170.371 "/>
<linearGradient id="SVGID_15_" gradientUnits="userSpaceOnUse" x1="201.6934" y1="266.0693" x2="180.9725" y2="245.3485" gradientTransform="matrix(0.5458 -0.8379 0.8379 0.5458 -118.0635 279.1855)">
	<stop  offset="0" style="stop-color:#F8F4AB"/>
	<stop  offset="0.8" style="stop-color:#FFCE14"/>
</linearGradient>
<polygon fill="url(#SVGID_15_)" points="186.664,249.33 196.949,250.558 203.792,242.782 205.801,252.943 215.312,257.048 
	206.269,262.099 205.304,272.413 197.705,265.374 187.599,267.642 191.945,258.24 "/>
<linearGradient id="SVGID_16_" gradientUnits="userSpaceOnUse" x1="-24.3521" y1="744.5566" x2="-45.0729" y2="723.8358" gradientTransform="matrix(0.5458 -0.8379 0.8379 0.5458 -118.0635 279.1855)">
	<stop  offset="0" style="stop-color:#F8F4AB"/>
	<stop  offset="0.8" style="stop-color:#FFCE14"/>
</linearGradient>
<polygon fill="url(#SVGID_16_)" points="464.228,699.89 474.512,701.118 481.355,693.342 483.365,703.504 492.875,707.607 
	483.832,712.659 482.867,722.973 475.269,715.934 465.162,718.202 469.508,708.8 "/>
<linearGradient id="SVGID_17_" gradientUnits="userSpaceOnUse" x1="392.458" y1="393.5972" x2="371.7379" y2="372.877" gradientTransform="matrix(0.5458 -0.8379 0.8379 0.5458 -118.0635 279.1855)">
	<stop  offset="0" style="stop-color:#F8F4AB"/>
	<stop  offset="0.8" style="stop-color:#FFCE14"/>
</linearGradient>
<polygon fill="url(#SVGID_17_)" points="397.64,159.086 407.924,160.314 414.768,152.538 416.777,162.7 426.287,166.804 
	417.244,171.855 416.279,182.169 408.681,175.13 398.574,177.398 402.92,167.996 "/>
<linearGradient id="SVGID_18_" gradientUnits="userSpaceOnUse" x1="13.4673" y1="327.0571" x2="-7.2529" y2="306.337" gradientTransform="matrix(0.5458 -0.8379 0.8379 0.5458 -118.0635 279.1855)">
	<stop  offset="0" style="stop-color:#F8F4AB"/>
	<stop  offset="0.8" style="stop-color:#FFCE14"/>
</linearGradient>
<polygon fill="url(#SVGID_18_)" points="135.037,440.335 145.321,441.563 152.165,433.787 154.174,443.949 163.684,448.053 
	154.641,453.104 153.676,463.418 146.078,456.379 135.971,458.647 140.317,449.245 "/>
<linearGradient id="SVGID_19_" gradientUnits="userSpaceOnUse" x1="165.4932" y1="524.3369" x2="144.7723" y2="503.6161" gradientTransform="matrix(0.5458 -0.8379 0.8379 0.5458 -118.0635 279.1855)">
	<stop  offset="0" style="stop-color:#F8F4AB"/>
	<stop  offset="0.8" style="stop-color:#FFCE14"/>
</linearGradient>
<polygon fill="url(#SVGID_19_)" points="383.315,420.621 393.6,421.85 400.443,414.073 402.453,424.234 411.963,428.34 
	402.92,433.391 401.955,443.704 394.356,436.665 384.25,438.934 388.596,429.531 "/>
<linearGradient id="SVGID_20_" gradientUnits="userSpaceOnUse" x1="176.771" y1="637.3418" x2="156.0508" y2="616.6216" gradientTransform="matrix(0.5458 -0.8379 0.8379 0.5458 -118.0635 279.1855)">
	<stop  offset="0" style="stop-color:#F8F4AB"/>
	<stop  offset="0.8" style="stop-color:#FFCE14"/>
</linearGradient>
<polygon fill="url(#SVGID_20_)" points="484.16,472.848 494.444,474.076 501.288,466.3 503.298,476.461 512.808,480.566 
	503.765,485.617 502.8,495.931 495.201,488.892 485.095,491.16 489.44,481.758 "/>
<linearGradient id="SVGID_21_" gradientUnits="userSpaceOnUse" x1="466.1074" y1="300.5078" x2="445.3866" y2="279.787" gradientTransform="matrix(0.5458 -0.8379 0.8379 0.5458 -118.0635 279.1855)">
	<stop  offset="0" style="stop-color:#F8F4AB"/>
	<stop  offset="0.8" style="stop-color:#FFCE14"/>
</linearGradient>
<polygon fill="url(#SVGID_21_)" points="359.835,46.566 370.119,47.794 376.963,40.018 378.973,50.18 388.482,54.284 
	379.439,59.335 378.475,69.649 370.876,62.61 360.77,64.878 365.115,55.476 "/>
<linearGradient id="SVGID_22_" gradientUnits="userSpaceOnUse" x1="286.5908" y1="342.1201" x2="265.87" y2="321.3993" gradientTransform="matrix(0.5458 -0.8379 0.8379 0.5458 -118.0635 279.1855)">
	<stop  offset="0" style="stop-color:#F8F4AB"/>
	<stop  offset="0.8" style="stop-color:#FFCE14"/>
</linearGradient>
<polygon fill="url(#SVGID_22_)" points="296.725,219.699 307.009,220.927 313.853,213.151 315.862,223.313 325.372,227.417 
	316.329,232.468 315.364,242.782 307.766,235.743 297.659,238.011 302.005,228.609 "/>
<linearGradient id="SVGID_23_" gradientUnits="userSpaceOnUse" x1="398.0938" y1="236.3979" x2="377.3722" y2="215.6764" gradientTransform="matrix(0.5458 -0.8379 0.8379 0.5458 -118.0635 279.1855)">
	<stop  offset="0" style="stop-color:#F8F4AB"/>
	<stop  offset="0.8" style="stop-color:#FFCE14"/>
</linearGradient>
<polygon fill="url(#SVGID_23_)" points="268.993,68.566 279.277,69.795 286.12,62.019 288.13,72.18 297.64,76.285 288.597,81.336 
	287.632,91.649 280.034,84.61 269.927,86.879 274.273,77.477 "/>
<linearGradient id="SVGID_24_" gradientUnits="userSpaceOnUse" x1="-36.2847" y1="465.5781" x2="-57.0048" y2="444.858" gradientTransform="matrix(0.5458 -0.8379 0.8379 0.5458 -118.0635 279.1855)">
	<stop  offset="0" style="stop-color:#F8F4AB"/>
	<stop  offset="0.8" style="stop-color:#FFCE14"/>
</linearGradient>
<polygon fill="url(#SVGID_24_)" points="223.954,557.626 234.238,558.854 241.081,551.078 243.091,561.24 252.601,565.344 
	243.558,570.396 242.593,580.709 234.995,573.67 224.888,575.938 229.234,566.536 "/>
<linearGradient id="SVGID_25_" gradientUnits="userSpaceOnUse" x1="-83.3955" y1="312.7471" x2="-104.1164" y2="292.0262" gradientTransform="matrix(0.5458 -0.8379 0.8379 0.5458 -118.0635 279.1855)">
	<stop  offset="0" style="stop-color:#F8F4AB"/>
	<stop  offset="0.8" style="stop-color:#FFCE14"/>
</linearGradient>
<polygon fill="url(#SVGID_25_)" points="70.179,513.688 80.464,514.917 87.307,507.141 89.316,517.303 98.827,521.406 
	89.784,526.458 88.819,536.771 81.22,529.732 71.114,532.001 75.46,522.599 "/>
<linearGradient id="SVGID_26_" gradientUnits="userSpaceOnUse" x1="79.6919" y1="563.1299" x2="58.971" y2="542.4091" gradientTransform="matrix(0.5458 -0.8379 0.8379 0.5458 -118.0635 279.1855)">
	<stop  offset="0" style="stop-color:#F8F4AB"/>
	<stop  offset="0.8" style="stop-color:#FFCE14"/>
</linearGradient>
<polygon fill="url(#SVGID_26_)" points="368.992,513.688 379.277,514.917 386.119,507.141 388.129,517.303 397.64,521.406 
	388.597,526.458 387.632,536.771 380.033,529.732 369.927,532.001 374.273,522.599 "/>
<linearGradient id="SVGID_27_" gradientUnits="userSpaceOnUse" x1="365.2656" y1="295.0444" x2="355.6541" y2="285.4329" gradientTransform="matrix(0.5458 -0.8379 0.8379 0.5458 -118.0635 279.1855)">
	<stop  offset="0" style="stop-color:#F8F4AB"/>
	<stop  offset="0.8" style="stop-color:#FFCE14"/>
</linearGradient>
<polygon fill="url(#SVGID_27_)" points="315.391,131.335 320.161,131.905 323.335,128.298 324.267,133.012 328.679,134.916 
	324.484,137.259 324.036,142.043 320.512,138.778 315.824,139.83 317.84,135.469 "/>
<linearGradient id="SVGID_28_" gradientUnits="userSpaceOnUse" x1="103.1055" y1="694.332" x2="93.4946" y2="684.7212" gradientTransform="matrix(0.5458 -0.8379 0.8379 0.5458 -118.0635 279.1855)">
	<stop  offset="0" style="stop-color:#F8F4AB"/>
	<stop  offset="0.8" style="stop-color:#FFCE14"/>
</linearGradient>
<polygon fill="url(#SVGID_28_)" points="506.881,568.932 511.651,569.501 514.825,565.895 515.757,570.607 520.169,572.512 
	515.975,574.854 515.526,579.639 512.002,576.373 507.314,577.426 509.33,573.064 "/>
<linearGradient id="SVGID_29_" gradientUnits="userSpaceOnUse" x1="48.9229" y1="443.2217" x2="39.312" y2="433.6108" gradientTransform="matrix(0.5458 -0.8379 0.8379 0.5458 -118.0635 279.1855)">
	<stop  offset="0" style="stop-color:#F8F4AB"/>
	<stop  offset="0.8" style="stop-color:#FFCE14"/>
</linearGradient>
<polygon fill="url(#SVGID_29_)" points="266.897,477.279 271.668,477.85 274.842,474.242 275.773,478.956 280.186,480.86 
	275.991,483.203 275.543,487.987 272.019,484.723 267.331,485.774 269.347,481.413 "/>
<linearGradient id="SVGID_30_" gradientUnits="userSpaceOnUse" x1="-123.5293" y1="692.7217" x2="-133.1408" y2="683.1101" gradientTransform="matrix(0.5458 -0.8379 0.8379 0.5458 -118.0635 279.1855)">
	<stop  offset="0" style="stop-color:#F8F4AB"/>
	<stop  offset="0.8" style="stop-color:#FFCE14"/>
</linearGradient>
<polygon fill="url(#SVGID_30_)" points="381.838,757.955 386.608,758.525 389.782,754.918 390.714,759.632 395.126,761.536 
	390.932,763.879 390.483,768.663 386.959,765.398 382.271,766.45 384.287,762.089 "/>
<linearGradient id="SVGID_31_" gradientUnits="userSpaceOnUse" x1="-206.9092" y1="617.7881" x2="-216.5207" y2="608.1765" gradientTransform="matrix(0.5458 -0.8379 0.8379 0.5458 -118.0635 279.1855)">
	<stop  offset="0" style="stop-color:#F8F4AB"/>
	<stop  offset="0.8" style="stop-color:#FFCE14"/>
</linearGradient>
<polygon fill="url(#SVGID_31_)" points="273.542,786.924 278.312,787.494 281.486,783.887 282.417,788.601 286.83,790.505 
	282.635,792.848 282.187,797.632 278.663,794.367 273.975,795.419 275.991,791.058 "/>
<linearGradient id="SVGID_32_" gradientUnits="userSpaceOnUse" x1="370.8027" y1="486.1582" x2="361.1905" y2="476.546" gradientTransform="matrix(0.5458 -0.8379 0.8379 0.5458 -118.0635 279.1855)">
	<stop  offset="0" style="stop-color:#F8F4AB"/>
	<stop  offset="0.8" style="stop-color:#FFCE14"/>
</linearGradient>
<polygon fill="url(#SVGID_32_)" points="478.552,231.003 483.322,231.573 486.496,227.966 487.428,232.68 491.84,234.584 
	487.646,236.927 487.197,241.711 483.673,238.446 478.985,239.498 481.001,235.137 "/>
<linearGradient id="SVGID_33_" gradientUnits="userSpaceOnUse" x1="519.2393" y1="397.4038" x2="509.6277" y2="387.7923" gradientTransform="matrix(0.5458 -0.8379 0.8379 0.5458 -118.0635 279.1855)">
	<stop  offset="0" style="stop-color:#F8F4AB"/>
	<stop  offset="0.8" style="stop-color:#FFCE14"/>
</linearGradient>
<polygon fill="url(#SVGID_33_)" points="485.196,58.184 489.967,58.753 493.141,55.146 494.072,59.86 498.484,61.764 494.29,64.107 
	493.842,68.891 490.317,65.626 485.63,66.678 487.646,62.317 "/>
<linearGradient id="SVGID_34_" gradientUnits="userSpaceOnUse" x1="376.001" y1="149.7769" x2="366.3894" y2="140.1653" gradientTransform="matrix(0.5458 -0.8379 0.8379 0.5458 -118.0635 279.1855)">
	<stop  offset="0" style="stop-color:#F8F4AB"/>
	<stop  offset="0.8" style="stop-color:#FFCE14"/>
</linearGradient>
<polygon fill="url(#SVGID_34_)" points="199.527,43.055 204.297,43.625 207.471,40.018 208.403,44.731 212.815,46.636 
	208.621,48.979 208.172,53.763 204.648,50.498 199.96,51.55 201.976,47.188 "/>
</svg>
