<?xml version="1.0" encoding="utf-8"?>
<!-- Generator: Adobe Illustrator 16.0.0, SVG Export Plug-In . SVG Version: 6.00 Build 0)  -->
<!DOCTYPE svg PUBLIC "-//W3C//DTD SVG 1.1//EN" "http://www.w3.org/Graphics/SVG/1.1/DTD/svg11.dtd">
<svg version="1.1" id="Calque_1" xmlns="http://www.w3.org/2000/svg" xmlns:xlink="http://www.w3.org/1999/xlink" x="0px" y="0px"
	 width="595.28px" height="841.89px" viewBox="0 0 595.28 841.89" enable-background="new 0 0 595.28 841.89" xml:space="preserve">
<ellipse fill="#EE2032" cx="291.241" cy="415.506" rx="112.421" ry="151.222"/>
<ellipse fill="#FDD1A9" cx="289.684" cy="233.116" rx="68.514" ry="77.439"/>
<ellipse fill="#FFFFFF" cx="259.237" cy="215.755" rx="13.415" ry="4.878"/>
<path fill="#F4F4F4" d="M297.529,254.122c-8.53,4.878-17.079,0-17.079,0l-55.178,7.008c0,0-9.457,51.529,13.714,68.602
	c23.171,17.074,18.292,62.195,42.682,60.977c0,0,49.41,13.414,58.242-6.098c8.832-19.514,12.887-45.123,18.178-51.221
	c5.289-6.098-11.785-31.57-5.688-44.443s1.93-29.266,1.93-29.266"/>
<ellipse fill="#FFFFFF" cx="317.292" cy="215.755" rx="13.415" ry="4.878"/>
<path fill="#941938" d="M259.237,278.242h64.007C323.244,278.242,289.133,320.925,259.237,278.242z"/>
<path fill="#FFFFFF" d="M239.098,198.664c0,0,30.102-13.872,41.352-5.335"/>
<path fill="#FFFFFF" d="M340.021,200.463c0,0-30.852-15.854-42.381-6.098"/>
<path fill="#FFFFFF" d="M280.45,254.122"/>
<path d="M280.45,246.805c0,0,15.977,4.878,17.19,0"/>
<circle cx="257.722" cy="216.4" r="4.295"/>
<circle cx="317.5" cy="216.708" r="3.797"/>
<ellipse opacity="0.5" fill="#EE245B" cx="254.82" cy="241.736" rx="9.382" ry="6.81"/>
<ellipse opacity="0.5" fill="#EE245B" cx="330.706" cy="241.736" rx="9.382" ry="6.81"/>
<path fill="#FFFFFF" d="M280.836,162.921c0,0-30.607,16.824-42.705,27.314c-12.098,10.491-8.517,53.774-6.001,69.938
	c2.516,16.163,1.439,78.358-13.632,84.456s-54.9,1.219-46.289-9.756c8.612-10.976,21.529-64.634,29.065-81.707
	c7.535-17.073,23.455-26.733,24.646-43.245c1.19-16.512,9.833-36.024,24.351-47c14.517-10.976,25.835-17.073,40.091-18.292
	c14.255-1.22,33.632,6.098,51.932,17.073c18.301,10.976,24.759,24.486,27.988,53.097s7.535,79.424,18.3,81.457
	s31.22,28.862,15.071,41.057c-16.146,12.195-48.441,40.244-46.288,18.292s-2.153-20.731,0-40.244s-10.942-32.233-7.086-61.239
	s-4.262-48.033-8.276-59.251s-9.397-7.56-23.392-14.876S280.836,162.921,280.836,162.921z"/>
<path fill="#EE2032" d="M225.403,201.683c0,0,6.955-49.497,51.423-73.007s92.604-3.712,110.684,0
	c18.081,3.712,25.888,22.273,25.888,22.273s20.292,4.762,10.926,8.568c-9.367,3.806-51.515,3.806-51.515,3.806l-7.208,32.685
	C365.601,196.008,265.348,148.208,225.403,201.683z"/>
<circle fill="#FFFFFF" cx="434.126" cy="155.677" r="15.76"/>
<path fill="#EE2032" d="M205.95,514.017c0,0-2.66,175.472,0,185.228s43.861,10.977,48.87,7.317s17.832-167.073,17.832-167.073"/>
<path fill="#EE2032" d="M372.848,514.017c0,0,2.66,175.472,0,185.228s-43.861,10.977-48.871,7.317
	c-5.009-3.659-17.832-167.073-17.832-167.073"/>
<path fill="#3C150C" d="M205.95,699.244c0,0-71.475,1.22-63.676,15.854s91.981,18.293,103.549,17.073s8.997-25.609,8.997-25.609
	l8.135-57.35l-58.188-2.674L205.95,699.244z"/>
<path fill="#3C150C" d="M373.298,703.927c0,0,71.475,1.22,63.676,15.854c-7.8,14.634-91.982,18.293-103.549,17.073
	c-11.568-1.22-8.998-25.609-8.998-25.609l-8.135-57.35l58.188-2.674L373.298,703.927z"/>
<polyline fill="#EE2032" points="189.098,500.464 185.173,460.938 387.878,448.024 392.916,505.449 "/>
<polyline fill="none" stroke="#FFFFFF" stroke-width="16" stroke-miterlimit="10" points="284.659,324.663 284.659,505.571 
	392.916,508.186 184.224,508.186 "/>
<polygon fill="#3C150C" points="185.173,462.97 272.813,462.97 304.038,462.97 392.917,462.97 389.396,487.527 190.928,481.271 "/>
<rect x="272.652" y="465.098" fill="#DAE120" width="31.225" height="18.302"/>
<path fill="#EE2032" d="M392.543,346.388c0,0,29.365,91.159,37.871,115.384c8.506,24.227-4.292,46.663-22.739,36.489
	c-18.448-10.174-35.431-63.07-37.504-67.007"/>
<path fill="#EE2032" d="M186.771,349.105c0,0-51.617,83.026-66.059,105.009c-14.442,21.984-6.44,44.723,15.006,37.203
	c21.446-7.522,51.336-55.706,54.399-59.199"/>
<g>
	<path fill="#FFFFFF" stroke="#FFFFFF" stroke-width="4" stroke-miterlimit="10" d="M121.732,473.803l16.675,16.471
		c0,0,12.006,21.788-18.265,5.857S98.776,462.858,121.732,473.803z"/>
	<circle fill="#FDD1A9" cx="107.202" cy="510.039" r="21.139"/>
</g>
<g>
	<path fill="#FFFFFF" stroke="#FFFFFF" stroke-width="4" stroke-miterlimit="10" d="M421.55,481.214l-16.676,16.471
		c0,0-12.006,21.788,18.265,5.857S444.505,470.27,421.55,481.214z"/>
	<circle fill="#FDD1A9" cx="433.827" cy="517.45" r="21.14"/>
</g>
</svg>
