<?xml version="1.0" encoding="utf-8"?>
<!-- Generator: Adobe Illustrator 16.0.0, SVG Export Plug-In . SVG Version: 6.00 Build 0)  -->
<!DOCTYPE svg PUBLIC "-//W3C//DTD SVG 1.1 Basic//EN" "http://www.w3.org/Graphics/SVG/1.1/DTD/svg11-basic.dtd">
<svg version="1.1" baseProfile="basic" id="Calque_1"
	 xmlns="http://www.w3.org/2000/svg" xmlns:xlink="http://www.w3.org/1999/xlink" x="0px" y="0px" width="1500px" height="1000px"
	 viewBox="0 0 1500 1000" xml:space="preserve">
<linearGradient id="SVGID_1_" gradientUnits="userSpaceOnUse" x1="1264.5137" y1="1512.3506" x2="153.0155" y2="-412.8204">
	<stop  offset="0" style="stop-color:#353B86"/>
	<stop  offset="1" style="stop-color:#101142"/>
</linearGradient>
<rect x="-512.358" y="-28.668" fill="url(#SVGID_1_)" stroke="#231F20" stroke-miterlimit="10" width="2442.244" height="1156.865"/>
<ellipse opacity="0.2" fill="#9F1D21" stroke="#231F20" stroke-miterlimit="10" cx="192.12" cy="1064.413" rx="380.135" ry="378.543"/>
<ellipse opacity="0.2" fill="#953593" stroke="#231F20" stroke-miterlimit="10" cx="141.21" cy="568.24" rx="72.064" ry="71.762"/>
<ellipse opacity="0.2" fill="#7E52A0" stroke="#231F20" stroke-miterlimit="10" cx="42.143" cy="685.867" rx="122.975" ry="122.46"/>
<ellipse opacity="0.2" fill="#5CBA52" stroke="#231F20" stroke-miterlimit="10" cx="557.284" cy="808.325" rx="279.533" ry="278.364"/>
<ellipse opacity="0.2" fill="#6FCBDC" stroke="#231F20" stroke-miterlimit="10" cx="213.274" cy="685.868" rx="118.124" ry="117.628"/>
<circle opacity="0.8" fill="#237E20" cx="199.274" cy="51.287" r="253.525"/>
<circle opacity="0.8" fill="#238E20" cx="513.274" cy="-28.713" r="253.525"/>
<circle opacity="0.7" fill="#237E20" stroke="#234220" stroke-miterlimit="10" cx="962.274" cy="36.287" r="253.525"/>
<circle opacity="0.8" fill="#237E20" cx="1373.274" cy="-119.713" r="253.525"/>
<circle opacity="0.3" fill="#237E20" cx="1133.274" cy="-119.713" r="253.525"/>
<circle opacity="0.5" fill="#237E20" cx="789.274" cy="-160.713" r="253.525"/>
<circle opacity="0.7" fill="#237E20" cx="213.274" cy="-160.713" r="253.525"/>
<g>
	<path fill-rule="evenodd" clip-rule="evenodd" fill="#638A3D" d="M726.701,109.756c-0.111,1.113-0.145,2.241-0.355,3.335
		c-0.213,1.104,0.85,2.829-0.79,3.193c-1.318,0.295-1.915-1.37-2.646-2.323c-3.121-4.066-7.879-3.587-10.378,0.892
		c-1.754,3.143-1.468,6.705-2.553,9.961c-1.016,0.854-0.378,1.857-0.255,2.815c0.308,1.673-0.653,3.056-0.927,5.266
		c-2.085-2.98-4.473-4.919-7.536-4.705c-3.814,0.268-6.92,2.563-9.46,5.254c-3.453,3.657-7.379,6.874-10.334,11.012
		c-0.577,0.807-1.122,2.006-3.007,1.835c1.672-4.819,3.297-9.501,4.921-14.182c1.069-1.4,0.901-2.846,0.152-4.312
		c-0.777-0.798-0.434-1.92-0.81-2.822c-1.162-2.787-2.427-5.454-7.058-2.859c2.16-5.216,3.973-9.595,5.786-13.973
		c0.403-1.753,0.673-3.502-0.135-5.223c-1.187-2.977-2.568-5.829-5.62-8.121c4.638-2.161,8.058-5.129,9.403-9.923
		c0.648-1.503,0.807-2.989-0.168-4.431c-1.063-2.871-1.91-5.85-4.635-8.338c4.012-1.068,7.568-1.847,11.008-2.978
		c3.926-1.291,7.578-3.214,9.484-7.158c1.362-2.819,3.56-2.917,6.108-2.448c1.23,0.65,2.652-0.081,3.887,0.535
		c2.211,0.756,4.422,0.781,6.633,0.001c0.552-0.181,1.104-0.362,1.656-0.542c0.605,1.781-0.554,2.623-1.813,3.416
		c-1.334,0.518-2.73,0.464-4.124,0.443c-0.759-0.017-1.509-0.121-2.247-0.297c-1.186-0.413-2.433-0.476-3.667-0.602
		c-0.342-0.037-0.68-0.107-1.014-0.187c-3.345-0.598-2.881,3.189-4.821,4.201c-0.947,0.968-2.076,1.702-3.183,2.465
		c-1.253,0.821-2.472,1.697-3.771,2.45c-1.044,0.552-2.188,0.867-3.255,1.366c-3.618,1.489-3.618,1.489-1.692,5.573
		c0.121,0.352,0.199,0.71,0.256,1.078c0.142,1.51,0.135,3.021,0.045,4.532c-0.232,1.691-0.754,3.286-1.629,4.757
		c-0.25,0.422-0.46,0.926-0.836,1.205c-4.379,3.26-4.645,7.252-2.157,11.76c0.513,4.844-0.012,9.497-2.756,13.664
		c-1.727,2.624,0.343,4.134,1.576,5.912c0.778,1.229,1.196,2.607,1.655,3.97c0.334,0.867,0.128,1.92,0.776,2.698
		c1.292-0.353,1.814-1.415,2.632-2.112c0.987-0.948,1.616-2.141,2.255-3.326c3.156-3.754,3.954-8.702,6.544-12.785
		c-0.822,0.082-1.555,0.031-2.27-0.226c-0.515-0.251-0.873-0.612-0.868-1.229c0.512-0.807,1.41-1.071,2.154-1.554
		c2.149-1.034,3.693-2.605,4.721-4.799c0.441-0.944,0.743-2.504,2.5-1.914c0.973,1.811,0.085,3.469-0.686,4.953
		c-1.468,2.827-1.744,5.625-0.805,8.649c0.35,1.129,0.964,2.702-0.385,3.382c-1.299,0.655-1.498-1.322-2.716-1.871
		c-1.34,3.72-2.497,7.523-4.93,10.925c1.665,0.009,2.161-1.251,2.948-2.003c4.318-4.119,5.174-4.127,8.865,0.321
		c2.264-3.46,1.818-7.463,2.349-11.172c0.524-3.669,1.712-6.982,3.452-10.168c2.494-4.566,4.97-4.86,8.677-1.059
		c0.347,0.355,0.654,0.75,1.01,1.103c0.897,1.158,2.04,2.009,3.263,2.8C726.528,106.747,727.505,107.918,726.701,109.756z"/>
	<path fill-rule="evenodd" clip-rule="evenodd" fill="#638A3D" d="M723.427,4.678c0.752-1.756,1.503-3.512,2.255-5.268
		c0.514-2,0.561-3.996-0.033-5.99c-0.174-0.125-0.21-0.282-0.109-0.472c-0.534-1.523-0.194-3.097-0.264-4.646
		c0.129-0.751,0.416-1.284,1.323-0.961c2.424,3.563,5.059,7.005,7.211,10.726c2.163,3.738,5.344,6.098,9.224,7.324
		c1.409,0.445,3.365-0.635,5.009-1.199c1.143-0.393,2.178-1.095,3.572-1.82c0.721,3.128-0.632,5.908-0.815,8.758
		c-0.087,1.357-0.398,2.701-0.462,4.06c-0.11,2.378,0.007,5.135,2.187,6.252c2.405,1.231,5.301,1.185,7.78-0.638
		c0.892-0.656,1.884-1.174,2.83-1.754c1.063,0.305,0.997,1.324,1.322,2.095c-1.21,4.776-2.222,9.614-3.694,14.309
		c-1.151,3.671,1.533,7.11,5.569,7.703c2.078,0.306,2.874,1.005,1.416,3.136c-2.697,3.943-5.574,7.695-9.115,10.932
		c-1.8,1.646-3.454,3.451-5.175,5.184c0.136,0.378,0.107,0.742-0.083,1.096c-3.239,2.224-4.584,1.514-5.31-2.798
		c4.48-3.747,9.265-7.161,13.024-11.714c0.474-0.574,0.862-1.207,0.708-1.965c-0.716-0.668-1.49-0.338-2.209-0.318
		c-2.615,0.067-3.727-1.059-3.895-3.794c-0.235-3.831,0.155-7.435,1.894-10.878c0.384-0.759,0.716-1.574,0.831-2.857
		c-2.068,0.718-3.461,2.195-5.273,2.811c-3.334,1.135-5.323,0.23-6.266-3.172c-1.003-3.621-1.56-7.244-0.464-11.045
		c0.767-2.66,1.666-5.457,0.623-8.477c-2.349,0.521-3.834,4.075-6.652,1.76c-1.832-1.504-2.626-3.925-5.096-5.965
		c0.918,3.732,1.994,6.781,1.776,10.006c-0.057,0.848,0.119,1.475,1.257,1.056c2.175-0.8,2.327,0.665,1.523,1.843
		c-2.085,3.059-2.142,6.235-1.398,9.648c0.235,1.078,0.12,2.246-0.591,3.229c-0.298,0.224-0.63,0.294-0.993,0.212
		c-1.502-1.793-1.171-4.404-2.76-6.156c-0.536-0.893-1.504-1.433-1.967-2.387c-0.023-0.357,0.078-0.676,0.314-0.947
		c1.429-0.916,1.18-2.219,0.977-3.63c-0.407-2.831-1.289-5.535-1.991-8.286c-0.224-1.693-1.352-2.984-2.016-4.479
		c-0.826-0.502-0.459-3.691-2.618-1.139c-0.408,0.768-0.853,1.492-1.775,1.721C724.215,5.825,723.707,5.417,723.427,4.678z"/>
	<path fill-rule="evenodd" clip-rule="evenodd" fill="#638A3D" d="M716.771,8.367c1.562,0.364,2.905-0.35,4.29-0.866
		c0.479,0.447,0.573,1.004,0.463,1.619c-1.504,2.063-2.053,4.075-1.304,6.809c1.068,3.894,0.384,7.826-2.034,11.268
		c-0.694,0.871-1.312,1.828-2.103,2.604c-1.355,1.328-1.791,2.518-0.308,4.104c1.296,1.386,1.779,3.247,2.316,5.041
		c0.324,1.676,0.345,3.348-0.026,5.018c-0.683,1.933-1.618,3.717-3.082,5.184c0.359,0.883-3.696,0.629-0.55,2.216
		c1.015,0.548,2.059,1.03,3.06,1.596c1.074,0.77,2.203,1.464,3.229,2.305c0.749,0.729,1.463,1.479,1.585,2.593
		c-0.031,0.764-0.38,1.339-1.037,1.729c-0.36,0.088-0.681,0.008-0.96-0.237c-2.893-3.821-7.357-4.733-11.528-6.099
		c-2.535-0.83-3.631-1.535-0.852-3.584c2.016-1.484,3.521-3.492,4.57-5.793c1.94-4.258,0.887-8.168-3.073-10.865
		c-1.68-1.145-2.357-2.281-0.214-3.354c7.332-3.673,8.21-9.774,6.533-16.865c-0.286-1.209-0.785-2.356-0.517-3.632
		C715.586,8.582,715.866,7.86,716.771,8.367z"/>
	<path fill-rule="evenodd" clip-rule="evenodd" fill="#638A3D" d="M818.624,111.794c-5.07,0.204-10.065-0.919-15.16-0.69
		c-6.898,0.307-8.713,1.879-9.006,8.854c-2.82-0.886-4.401-3.375-6.685-4.858c-0.314-0.639,0.039-1.023,0.514-1.361
		c1.146-0.439,2.807-0.176,2.279-2.445c-0.534-2.301,1.16-3.036,3.082-3.232c1.975-0.203,3.963-0.036,6.262-0.097
		c-2.895-0.596-5.404-1.361-7.729-2.656c-1.283-0.714-2.491-1.761-4.139-0.966c-0.337,0.164-0.861,0.271-1.063,0.012
		c-2.099-2.689-5.879-3.531-7.447-6.791c0.587-0.535,1.294-0.586,2.032-0.517c1.503,0.643,3.154-0.215,4.657,0.444
		c3.729,3.893,8.805,4.868,13.667,6.301c1.283,0.436,2.648,0.394,3.956,0.669c1.229,0.441,2.467,0.288,3.706,0.03
		c0.648-0.052,1.284-0.028,1.852,0.35c3.585,1.812,7.171,3.622,10.757,5.433C820.693,111.835,819.108,111.259,818.624,111.794z"/>
	<path fill-rule="evenodd" clip-rule="evenodd" fill="#638B3D" d="M788.67,114.129c-0.299,0.323-0.598,0.646-0.896,0.971
		c-2.581-1.83-5.26-3.486-8.217-4.651c-1.001-0.686-1.974-0.689-2.911,0.125c-2.444,1.204-3.411,3.21-3.179,5.865
		c-0.73,0.6,0.6,2.534-1.469,2.267c-2.944-2.565-6.156-4.89-8.766-7.761c-3.163-3.481-6.711-5.14-11.357-4.35
		c-0.235-0.29-0.319-0.619-0.258-0.987c0.668-1.636,1.121-3.4,2.652-4.533c3.614,0.439,6.405,2.356,8.779,4.975
		c1.153,1.273,2.053,2.797,3.654,3.614c1.054-0.612,0.568-1.554,0.587-2.348c0.101-4.31,1.883-5.524,5.925-4.375
		c5.823,1.657,10.158,5.571,14.661,9.258C788.448,112.667,788.931,113.271,788.67,114.129z"/>
	<path fill-rule="evenodd" clip-rule="evenodd" fill="#EC3E29" d="M748.062,110.313c-0.196,0.085-0.401,0.135-0.615,0.149
		c-2.094,1.311-4.391,2.079-6.801,2.555c-2.555-0.18-5.142,0.408-7.667-0.35l-0.298,0.01l-0.296-0.029
		c-0.27-1.485,1.1-1.37,1.836-1.835c1.072-0.677,2.295-1.283,1.721-2.843c-0.384-1.042-1.337-1.49-2.427-1.243
		c-1.446,0.33-2.004,1.344-1.801,2.787c0.069,0.489,0.192,0.973,0.129,1.473c-0.759,1.224-1.792-0.031-2.653,0.291
		c-0.203-0.152-0.405-0.304-0.607-0.455c-0.152-0.708-0.561-1.334-0.659-2.056c-0.109-1.42,0.937-2.909-0.258-4.257
		c-0.868-0.732-1.29,0.063-1.849,0.504c-1.246,0.982-2.208,0.392-2.638-0.815c-0.985-2.771-2.848-5.359-2.052-8.563
		c0.083-0.325,0.223-0.629,0.406-0.909c1.086-1.121,2.864,0.469,3.871-0.989c0.296-0.152,0.609-0.22,0.941-0.212
		c1.206,0.478,1.063,1.949,1.966,2.647c0.861,2.333,2.257,0.354,3.403,0.415c0.357,0.024,0.663,0.157,0.917,0.41
		c0.263,0.479,0.322,0.992,0.277,1.523c-0.188,3.406,2.3,4.223,4.836,4.854c1.291,0.321,2.676,0.026,4.015,0.205
		c1.531,0.362,3.13,0.605,3.908,2.261c0.541,2.087-0.639,3.136-2.49,3.692C745.007,109.117,746.793,107.674,748.062,110.313z"/>
	<path fill-rule="evenodd" clip-rule="evenodd" fill="#638A3E" d="M809.402,104.84c-0.444,0.103-0.888,0.204-1.331,0.306
		c-0.984-0.677-2.141-1.125-2.863-2.151c-1.069-1.442-1.911-2.998-2.359-4.749c0.008-2.629-1.331-3.868-3.842-4.715
		c-4.18-1.411-7.948-3.65-10.216-7.731c-0.815-1.751-2.122-3.393-1.242-5.525c1.775-1.75,3.171-1.848,3.902,0.905
		c0.491,3.5,2.271,6.15,5.437,7.7c3.687,1.805,7.454,3.442,11.187,5.152c0.34,1.394-0.93,0.779-1.419,1.138
		c-2.126,1.449-1.222,3.231-0.373,4.831C807.179,101.69,808.351,103.233,809.402,104.84z"/>
	<path fill-rule="evenodd" clip-rule="evenodd" fill="#C12021" d="M732.348,96.918c-0.241-0.004-0.483-0.006-0.724-0.007
		c-1.473,0.848-2.696,0.432-3.771-0.743c-1.366-0.182-0.858-1.595-1.485-2.262c-1.155-0.847-2.853-0.238-3.879-1.442
		c-0.183-1.814,1.067-2.637,2.367-3.429c1.191-0.351,2.2,0.13,3.19,0.698c5.816,4.201,12.276,7.328,18.428,10.97
		c1.488,0.881,3.042,1.644,4.247,2.927c0.578,0.681,1.065,1.412,1.22,2.316c-0.033,0.215-0.056,0.431-0.066,0.648
		c-0.271,0.271-0.542,0.54-0.813,0.81c-3.647-0.98-6.372-3.643-9.647-5.31C738.314,100.518,735.278,98.806,732.348,96.918z"/>
	<path fill-rule="evenodd" clip-rule="evenodd" fill="#C62121" d="M732.348,96.918c3.08-0.081,5.151,2.105,7.59,3.43
		c3.863,2.098,7.872,3.987,11.124,7.057c0.106,0.896-0.594,1.222-1.164,1.639c-2.469,0.297-3.535-1.536-4.758-3.132
		c-1.046-1.028-2.449-1.17-3.77-1.513c-2.952-2.095-6.805-2.831-9.042-6.004C732.335,97.903,732.342,97.412,732.348,96.918z"/>
	<path fill-rule="evenodd" clip-rule="evenodd" fill="#8BA26D" d="M791.451,81.179c-0.923-1.548-2.12-1.806-3.595-0.767
		c-2.362,1.822-4.721,0.417-7.084,0.003c-0.778-0.253-1.506-0.615-2.193-1.06c-1.103-0.826-2.186-1.72-2.796-2.963
		c-0.523-1.067-1.231-2.395,0.853-2.738c3.479,4.857,8.881,3.705,13.684,4.214c1.014,0.108,1.228,0.263,1.359,1.048
		C791.603,79.67,791.526,80.424,791.451,81.179z"/>
	<path fill-rule="evenodd" clip-rule="evenodd" fill="#EF7472" d="M731.54,111.233c-1.52-1.991-1.631-3.833,0.711-5.257
		c2.001-1.215,3.616-0.308,4.789,1.316c1.337,1.851-0.281,2.855-1.399,3.995c-0.918,0.938-2.555,0.01-3.258,1.36
		c-0.257-0.012-0.515-0.022-0.772-0.034C731.196,112.173,731.183,111.712,731.54,111.233z"/>
	<path fill-rule="evenodd" clip-rule="evenodd" fill="#BE2723" d="M728.582,108.06c0,0.921,0,1.841,0,2.762
		c-0.627-0.354-1.255-0.708-1.882-1.064c-0.203-3.551-4.354-3.562-5.566-6.208c-0.566-1.593-1.849-2.938-1.704-4.773
		c0.127-1.604,0.17-3.297,2.397-3.46c-0.849,3.238,1.591,5.718,2.037,8.672c0.158,1.051,0.956,1.431,1.507,0.032
		c0.878-2.229,2.049-1.221,3.21-0.28C727.365,105.18,728.47,106.621,728.582,108.06z"/>
	<path fill-rule="evenodd" clip-rule="evenodd" fill="#698743" d="M776.636,73.655c-1.91,2.904,1.769,3.364,2.28,5.21
		c-3.263,1.161-4.498-1.233-5.896-3.351c-0.382-1.2-0.416-2.481-0.819-3.68c-0.181-1.72-1.287-3.079-1.83-4.66
		c-0.062-0.359,0.054-0.657,0.314-0.903c1.533-0.762,2.682-0.787,3.228,1.256c0.437,1.629,0.84,3.328,2.063,4.629
		C776.196,72.656,776.416,73.155,776.636,73.655z"/>
	<path fill-rule="evenodd" clip-rule="evenodd" fill="#9D2224" d="M770.686,66.271c-0.026,0.192-0.031,0.385-0.015,0.577
		c0.235,1.422-0.722,0.964-1.298,0.725c-1.259-0.522-2.108-1.742-3.465-2.132c-1.743-0.315-3.306-2.565-5.269-0.468
		c-2.141,0.409-3.937-1.15-6.026-1.036c-0.353-0.083-0.681-0.22-0.986-0.412c-0.113-0.14-0.224-0.28-0.335-0.421
		c0.063-0.23,0.117-0.464,0.166-0.697c1.646,0.181,3.191-0.402,4.784-0.604C763.114,61.187,767.323,62.594,770.686,66.271z"/>
	<path fill-rule="evenodd" clip-rule="evenodd" fill="#CA2423" d="M745.14,105.912c1.586,1.044,3.172,2.088,4.758,3.132
		c-0.465,0.635-0.857,1.375-1.836,1.27c-1.51-1.324-3.392-0.236-5.345-0.898C744.19,108.59,745.479,107.722,745.14,105.912z"/>
	<path fill-rule="evenodd" clip-rule="evenodd" fill="#C42523" d="M720.311,59.345c0.236,0.023,0.473,0.03,0.711,0.021
		c0.282-0.245,0.583-0.285,0.906-0.085c0.374,2.15-2.019,2.517-2.604,4.052c-0.549,0.688-1.133,1.333-2.016,1.601
		c-0.371,0.013-0.677-0.125-0.93-0.393c-0.496-1.081,0.383-1.593,0.929-2.243c0.658-0.883,1.771-1.476,1.765-2.779
		C719.485,59.46,719.897,59.403,720.311,59.345z"/>
	<path fill-rule="evenodd" clip-rule="evenodd" fill="#5F863B" d="M721.117,9.144c-0.019-0.548-0.038-1.095-0.056-1.644
		c0.789-0.94,1.578-1.881,2.366-2.822c0.48,0.247,0.959,0.494,1.439,0.741c0.247,0.239,0.338,0.524,0.251,0.86
		c-0.517,1.041-1.393,1.766-2.222,2.535C722.351,9.178,721.808,9.57,721.117,9.144z"/>
	<path fill-rule="evenodd" clip-rule="evenodd" fill="#AE2829" d="M741.359,112.659c2.029-0.732,4.058-1.464,6.087-2.196
		c-1.296,2.529-3.896,2.191-6.081,2.767c-0.256-0.123-0.341-0.249-0.259-0.377C741.19,112.723,741.273,112.659,741.359,112.659z"/>
	<path fill-rule="evenodd" clip-rule="evenodd" fill="#A72123" d="M741.359,112.659c-0.003,0.19,0,0.381,0.006,0.57
		c-2.826,0.26-5.681,0.955-8.388-0.562C735.771,112.665,738.565,112.662,741.359,112.659z"/>
	<path fill-rule="evenodd" clip-rule="evenodd" fill="#597E38" d="M717.417,60.06c-2.211,1.431-4.469,1.183-6.749,0.192
		c0.266-0.392,0.599-0.461,0.999-0.207C713.583,60.051,715.5,60.055,717.417,60.06z"/>
	<path fill-rule="evenodd" clip-rule="evenodd" fill="#607C47" d="M725.649-6.58c1.125,1.991,1.088,3.987,0.033,5.99
		C725.671-2.586,725.66-4.583,725.649-6.58z"/>
	<path fill-rule="evenodd" clip-rule="evenodd" fill="#899B7A" d="M821.667,111.085c0.88,0.253,2.007-0.104,2.669,1.283
		c-1.306,0.391-2.462,0.383-3.603-0.335C820.833,111.508,821.15,111.2,821.667,111.085z"/>
	<path fill-rule="evenodd" clip-rule="evenodd" fill="#527333" d="M684.931,80.446c1.642,1.222,0.808,2.898,0.799,4.421
		c0,0.056-0.191,0.156-0.292,0.155c-0.113,0-0.226-0.093-0.339-0.146C685.043,83.4,684.987,81.922,684.931,80.446z"/>
	<path fill-rule="evenodd" clip-rule="evenodd" fill="#597D38" d="M683.532,127.797c1.536,1.493,1.205,2.921-0.152,4.312
		C683.431,130.672,683.481,129.235,683.532,127.797z"/>
	<path fill-rule="evenodd" clip-rule="evenodd" fill="#607C48" d="M681.315,102.92c1.33,1.707,1.146,3.454,0.135,5.223
		C681.406,106.402,681.36,104.662,681.315,102.92z"/>
	<path fill-rule="evenodd" clip-rule="evenodd" fill="#5E7A46" d="M726.6-12.659c-0.329,0.278-0.657,0.556-0.986,0.833
		c-0.213,0.336-0.424,0.334-0.632-0.004c-0.198-0.924-0.397-1.848-0.63-2.934C725.978-14.755,726.219-13.634,726.6-12.659z"/>
	<path fill-rule="evenodd" clip-rule="evenodd" fill="#58793B" d="M764.458,21.144c-0.44-0.698-0.881-1.397-1.322-2.095
		c0.562-0.404,1.369-1.337,1.769-0.607C765.249,19.074,764.644,20.223,764.458,21.144z"/>
	<path fill-rule="evenodd" clip-rule="evenodd" fill="#648741" d="M711.667,60.045c-0.333,0.068-0.667,0.137-0.999,0.206
		c-1.245-0.305-2.682,0.386-3.771-0.728C708.511,59.471,710.155,59.151,711.667,60.045z"/>
	<path fill-rule="evenodd" clip-rule="evenodd" fill="#56753B" d="M771.998,118.706c1.059-0.387,0.654-1.722,1.469-2.267
		c0.1,0.709,0.231,1.415,0.287,2.127c0.042,0.529,0.335,1.366-0.56,1.311C772.772,119.849,772.396,119.118,771.998,118.706z"/>
	<path fill-rule="evenodd" clip-rule="evenodd" fill="#617D48" d="M724.981-11.83c0.211,0.002,0.422,0.004,0.632,0.004
		c-0.024,1.591-0.049,3.182-0.074,4.773C724.508-8.545,724.924-10.208,724.981-11.83z"/>
	<path fill-rule="evenodd" clip-rule="evenodd" fill="#58783B" d="M821.667,111.085c-0.312,0.316-0.623,0.632-0.934,0.948
		c-0.703-0.08-1.406-0.16-2.109-0.239c0.512-0.507,1.023-1.014,1.535-1.521C820.744,110.392,821.396,110.384,821.667,111.085z"/>
	<path fill-rule="evenodd" clip-rule="evenodd" fill="#547634" d="M776.646,110.574c0.926-1.087,1.88-1.512,2.911-0.125
		C778.587,110.491,777.616,110.533,776.646,110.574z"/>
	<path fill-rule="evenodd" clip-rule="evenodd" fill="#B02829" d="M731.54,111.233c0.024,0.46,0.047,0.92,0.071,1.381
		c-0.943-0.196-1.81-0.535-2.421-1.335C729.954,110.251,730.758,111.326,731.54,111.233z"/>
	<path fill-rule="evenodd" clip-rule="evenodd" fill="#506D36" d="M716.771,8.367c-0.514,0.262-1.028,0.523-1.542,0.786
		c-0.157-0.791-0.526-1.575,0.061-2.639C715.833,7.192,716.302,7.78,716.771,8.367z"/>
	<path fill-rule="evenodd" clip-rule="evenodd" fill="#637B50" d="M806.655,95.169c0.473-0.379,0.946-0.758,1.419-1.138
		c0.603,0.094,1.075,0.338,1.181,1.012C808.389,95.085,807.522,95.127,806.655,95.169z"/>
	<path fill-rule="evenodd" clip-rule="evenodd" fill="#597A3B" d="M709.723,127.629c-0.68-1.009-1.263-2.008,0.255-2.815
		C709.893,125.751,709.808,126.691,709.723,127.629z"/>
	<path fill-rule="evenodd" clip-rule="evenodd" fill="#89B03F" d="M721.826,95.316c-3.085,2.505-0.665,5.474-0.693,8.235
		c-0.66-0.729-1.255-1.528-1.991-2.167c-2.439-2.116-3.918-1.776-5.653,1.028c-2.961,4.784-4.021,10.063-4.39,15.578
		c-0.205,3.061-0.437,6.185-3.224,8.626c-0.485-1.044-0.902-1.882-1.27-2.743c-1.177-2.756-2.741-2.904-4.765-0.804
		c-1.555,1.612-3.172,3.166-4.804,4.701c-0.555,0.521-1.312,0.904-1.967,0.207c-0.529-0.563-0.057-1.219,0.281-1.678
		c2.903-3.947,4.202-8.632,5.823-13.228c1.839,0.684,1.495,2.744,3.471,3.498c-4.221-6.066,0.444-11.17,1.183-16.697
		c-0.182-0.327-0.193-0.656-0.005-0.986c2.54-1.571,2.409,0.877,3.445,2.302c-1.549-3.022-1.944-5.842-0.724-8.758
		c0.588-1.405,1.174-3.104,2.866-3.037c1.609,0.064,1.822,1.769,2.041,3.141c0.059,0.367,0.227,0.708,0.392,1.042
		c0.257,0.502,0.231,1.078,0.443,1.689c-0.095-0.961-0.356-1.777-0.727-2.568c-1.352-5.753-0.308-9.018,3.762-11.793
		c0.588-0.056,1.056,0.199,1.471,0.577c1.165,1.367,1.977,3.104,3.864,3.729c0.964,0.311,1.725,0.948,2.518,1.539
		c0.851,0.745,2.135,1.184,1.936,2.686c-0.719,1.049-2.131,1.546-2.375,2.974c0.191,0.247,0.301,0.525,0.317,0.839
		c-0.073,0.69-0.68,0.978-1.074,1.427C721.903,94.883,721.854,95.097,721.826,95.316z"/>
	<path fill-rule="evenodd" clip-rule="evenodd" fill="#3F5F2D" d="M689.652,126.166c-0.119,0.21-0.195,0.467-0.364,0.622
		c-1.114,1.014-1.957,3.156-3.512,2.599c-1.384-0.495-0.42-2.601-0.657-3.972c1.191-5.971,2.32-11.955,4.024-17.813
		c0.225-0.347,0.521-0.616,0.88-0.82c1.114-0.482,2.234-0.949,3.426-0.22c-0.624,5.029-2.103,9.882-3.134,14.828
		C689.985,122.973,689.715,124.551,689.652,126.166z"/>
	<path fill-rule="evenodd" clip-rule="evenodd" fill="#42622E" d="M689.629,107.477c-1.102,6.08-1.353,12.374-4.51,17.938
		c-0.986-1.046-1.156-2.423-1.513-3.725c-2.008-4.044,0.782-7.585,1.214-11.371c0.206-1.8,0.937-3.332,3.054-3.596
		C688.565,106.728,689.184,106.902,689.629,107.477z"/>
	<path fill-rule="evenodd" clip-rule="evenodd" fill="#43632F" d="M694.126,70.674c1.248-0.761,2.494-1.521,3.741-2.281
		c1.468,1.579,0.933,3.436,0.687,5.23c-0.332,2.419-1.175,4.766-1.017,7.255c-0.148,1.508-1.403,1.874-2.488,2.424
		c-0.964,0.376-1.93,0.769-2.984,0.32c-2.172-3.185,0.15-6.158,0.464-9.223C692.669,73.03,693.365,71.819,694.126,70.674z"/>
	<path fill-rule="evenodd" clip-rule="evenodd" fill="#37562A" d="M703.936,99.192c-0.038,0.227-0.073,0.454-0.107,0.682
		c-2.094,2.646-2.591,6.704-6.698,7.566c-0.842-0.742-0.868-1.716-0.782-2.723c0.146-0.954,0.516-1.826,0.998-2.654
		c3.137-3.537,4.453-7.969,6.009-12.29c0.354-0.186,0.728-0.285,1.126-0.31c1.673,0.119,2.618,1.073,2.119,2.652
		C705.843,94.512,705.678,97.16,703.936,99.192z"/>
	<path fill-rule="evenodd" clip-rule="evenodd" fill="#476730" d="M688.157,107.393c-1.087,0.074-2.068,0.519-2.158,1.649
		c-0.344,4.308-2.556,8.253-2.393,12.646c-2.764-2.123-4.5-4.048-1.541-7.741c2.813-3.512,2.431-8.178,2.34-12.532
		c0.283-0.226,0.579-0.246,0.891-0.064c0.822,1.028,0.995,2.41,1.865,3.413C687.646,105.582,688.608,106.223,688.157,107.393z"/>
	<path fill-rule="evenodd" clip-rule="evenodd" fill="#476730" d="M694.126,70.674c-0.628,3.247-1.214,6.503-1.906,9.738
		c-0.237,1.11-0.671,2.156,0.458,3.02c0.378,1.646-1.109,2.308-1.78,3.403c-0.868,1.027-1.419,2.381-2.872,2.81
		c-0.551-0.107-1.023-0.269-0.651-0.985c0.508-1.503,1.017-3.005,1.526-4.508c0.578-1.744,0.576-3.487,0-5.23
		c-0.007-0.254-0.015-0.508-0.022-0.761c0.334-2.159,0.137-4.516,2.242-6.015C692.122,71.655,693.125,71.165,694.126,70.674z"/>
	<path fill-rule="evenodd" clip-rule="evenodd" fill="#38572A" d="M706.873,61.678c1.275,0.137,2.682-0.43,3.768,0.709
		c-0.086,0.176-0.172,0.351-0.253,0.527c-2.73,5.432-2.856,11.565-4.64,17.254c-0.483,1.544-0.538,3.295-2.652,3.592
		c-0.671-0.123-1.074-0.548-1.315-1.159C702.667,75.431,703.435,68.229,706.873,61.678z"/>
	<path fill-rule="evenodd" clip-rule="evenodd" fill="#3A592B" d="M695.621,108.925c0.978,0,1.956,0,3.411,0
		c-2.69,4.853-3.598,10.172-7.183,14.215c-1.554-0.041-1.462-1.249-1.242-2.134c0.928-3.716,1.051-7.647,2.891-11.127
		C694,109.105,694.914,109.246,695.621,108.925z"/>
	<path fill-rule="evenodd" clip-rule="evenodd" fill="#3A592B" d="M706.873,61.678c-1.501,6.997-3.001,13.994-4.502,20.99
		c-0.376,0.246-0.754,0.249-1.137,0.011c-0.696-0.538-1.041-1.273-1.196-2.119c0.397-5.907,1.971-11.574,3.631-17.214
		c0.312-1.059,0.66-2.616,2.491-1.701C706.398,61.633,706.636,61.645,706.873,61.678z"/>
	<path fill-rule="evenodd" clip-rule="evenodd" fill="#3C5C2C" d="M706.16,61.645c-1.045,0.055-1.48,0.713-1.671,1.648
		c-1.219,5.985-3.148,11.825-3.646,17.957c-0.667,0.612-1.396,0.554-2.153,0.2c-0.305-0.252-0.512-0.569-0.625-0.949
		c0.176-4.933,1.82-9.583,2.791-14.364c0.752-1.219,1.523-2.425,2.252-3.657C703.867,61.196,704.686,60.256,706.16,61.645z"/>
	<path fill-rule="evenodd" clip-rule="evenodd" fill="#314E27" d="M717.307,62.297c-0.268,0.775-0.535,1.55-0.803,2.325
		c-0.771,3.401-1.612,6.784-2.655,10.119c-1.16,1.206-2.461,1.531-3.958,0.638c-0.35-4.625,0.786-8.909,2.982-12.949
		C714.351,62.385,715.829,62.341,717.307,62.297z"/>
	<path fill-rule="evenodd" clip-rule="evenodd" fill="#3D5C2C" d="M694.128,109.667c-0.917,3.83-1.822,7.664-2.761,11.489
		c-0.19,0.775-0.252,1.461,0.482,1.983c-0.534,1.152-0.914,2.417-2.198,3.025c-0.319-0.143-0.93-0.335-0.916-0.421
		c1.088-6.46,1.85-13.004,4.64-19.049c0.297-0.21,0.602-0.224,0.916-0.041c0.305,0.426,0.406,0.889,0.243,1.393
		C694.626,108.641,693.784,109.005,694.128,109.667z"/>
	<path fill-rule="evenodd" clip-rule="evenodd" fill="#3F5F2D" d="M700.855,66.137c1.068,4.51-1.513,8.486-1.877,12.788
		c-0.061,0.725-0.216,1.44-0.327,2.161c-0.48,0.461-0.982,0.53-1.512,0.082c-1.964-2.095-0.092-4.226,0.149-6.244
		c0.26-2.176,0.644-4.326,0.579-6.531C698.863,67.641,699.859,66.889,700.855,66.137z"/>
	<path fill-rule="evenodd" clip-rule="evenodd" fill="#335228" d="M712.873,62.43c-0.705,4.31-1.551,8.587-3,12.721
		c-0.363,0.267-0.763,0.345-1.2,0.235c-0.57-0.324-1.04-0.847-1.005-1.452c0.228-4.019,0.594-8.018,2.944-11.498l0.028-0.049
		C711.385,62.401,712.129,62.417,712.873,62.43z"/>
	<path fill-rule="evenodd" clip-rule="evenodd" fill="#4C6D33" d="M687.375,88.66c0.235,0.248,0.47,0.496,0.706,0.744
		c-0.234,4.202-1.632,8.11-3.038,12.016c-0.212-0.003-0.425-0.005-0.637-0.004C680.146,95.942,683.387,92.213,687.375,88.66z"/>
	<path fill-rule="evenodd" clip-rule="evenodd" fill="#4A6A31" d="M691.12,72.146c-1.248,1.818-0.15,4.51-2.242,6.015
		c-0.878-1.333-1.757-2.666-2.657-4.031C687.738,72.87,689.469,72.606,691.12,72.146z"/>
	<path fill-rule="evenodd" clip-rule="evenodd" fill="#3A592B" d="M694.125,108.155c-0.018-0.535-0.036-1.072-0.054-1.608
		c-0.186-0.307-0.19-0.62-0.043-0.942c0.799-0.947,1.707-1.643,3.055-1.3c0.016,1.045,0.031,2.09,0.046,3.136
		c-0.532,0.841-1.392,0.713-2.198,0.742C694.652,108.476,694.384,108.466,694.125,108.155z"/>
	<path fill-rule="evenodd" clip-rule="evenodd" fill="#4A6A31" d="M688.901,78.921c1.141,1.743,1.142,3.487-0.001,5.23
		C688.9,82.408,688.9,80.665,688.901,78.921z"/>
	<path fill-rule="evenodd" clip-rule="evenodd" fill="#3F5F2D" d="M694.125,108.155c0.269,0.009,0.537,0.018,0.806,0.027
		c0.23,0.248,0.46,0.495,0.69,0.743c-0.326,0.594-0.884,0.719-1.493,0.742C691.596,109.168,694.565,108.659,694.125,108.155z"/>
	<path fill-rule="evenodd" clip-rule="evenodd" fill="#89B03F" d="M737.586,30.918c-0.013-1.984,0.12-3.943-0.519-5.917
		c-1.064-3.292,0.945-5.845,2.283-8.687c-0.897,0.707-1.795,1.415-3.336,2.631c0.692-5.734-0.792-10.526-2.317-15.78
		c3.437,1.09,4.703,3.507,5.91,5.683c1.586,2.859,3.12,2.699,5.168,0.709c0.804-0.782,1.197-2.803,2.622-1.897
		c1.151,0.732,1.485,2.538,1.234,4.073c-0.317,1.953-0.568,3.953-1.213,5.807c-1.303,3.742-0.639,7.367,0.3,10.989
		c0.86,3.32,2.287,3.966,5.489,2.427c1.438-0.691,2.676-1.789,4.045-2.637c0.714-0.442,1.556-1.262,2.349-0.718
		c0.926,0.635,0.176,1.565-0.141,2.349c-0.513,1.269-0.803,2.689-1.564,3.783c-2.28,3.28-0.981,6.98-1.25,10.443
		c-0.171,2.203,2.201,1.871,3.78,1.496c1.112-0.264,2.22-0.836,3.009,0.404c0.733,1.156-0.4,1.875-0.965,2.563
		c-4.026,4.906-8.451,9.378-14.208,12.295c-1.729-0.305-2.542-1.504-2.996-3.057c-0.053-1.414-0.352-2.609-0.989-4.031
		c-2.002-4.473-3.628-9.242-2.702-14.182c-1.686,1.283-2.895,0.715-3.364-1.719c-0.502-2.606-0.003-4.954,1.705-7.013
		c0.275-0.376,0.739-0.595,0.91-1.066c-0.199,0.269-0.448,0.487-0.696,0.731C739.312,31.014,738.679,32.856,737.586,30.918z"/>
	<path fill-rule="evenodd" clip-rule="evenodd" fill="#638A3D" d="M740.636,30.942c-0.982,1.994-2.334,3.893-1.573,6.324
		c0.243,0.777-0.337,1.94,0.765,2.283c1.006,0.314,1.444-0.771,2.083-1.304c0.654-0.545,1.261-1.147,2.369-1.651
		c-4.398,4.607-1.246,9.279-0.392,13.821c0.197,1.047-0.75,3.784,2.561,3.503c0.815-0.069-0.7,2.646-0.637,4.151
		c-1.908,0.765-2.876-0.745-4.085-1.677c-0.617-0.79-1.467-1.372-2.03-2.215c-0.089-0.535,0.148-0.969,0.425-1.391
		c-0.268-3.611-1.882-6.763-3.372-9.951c-0.401-1.101-1.672-1.699-1.746-2.992c0.064-0.528,0.326-0.969,0.605-1.4
		c1.123-2.391-0.769-5.316,1.334-7.525c0.215,0,0.43,0,0.645,0c1.149,0.935,1.443-0.74,2.284-0.749
		C740.568,29.987,740.856,30.212,740.636,30.942z"/>
	<path fill-rule="evenodd" clip-rule="evenodd" fill="#3A5A2B" d="M732.391,21.931c-0.018,0.243-0.02,0.486-0.005,0.73
		c-0.957,5.093-0.031,10.304-0.951,15.403c-0.446,4.074-0.108,8.158-0.214,12.234c-0.039,1.479,0.083,2.979-0.646,4.356
		c-0.262,0.39-0.622,0.644-1.075,0.766c-3.536-0.114-3.514-2.706-3.236-5.079c0.323-2.754,0.467-5.461-0.006-8.191
		c0.526-3.451,0.564-6.928,0.525-10.409c0.758-3.565,0.493-7.25,1.238-10.817c0.673-1.178,1.673-1.053,2.736-0.688
		C731.522,20.585,732.15,21.073,732.391,21.931z"/>
	<path fill-rule="evenodd" clip-rule="evenodd" fill="#3D5C2C" d="M728.62,20.418c0.153,3.783-0.082,7.539-0.757,11.266
		c-2.256-0.559-2.094-2.537-2.476-4.201c1.03-7.834,0.283-15.738,0.935-23.588c0.101-0.961-0.07-2.498,1.083-2.436
		c1.67,0.09,2.038,1.919,2.675,3.234c0.368,3.53,0.441,7.07,0.269,10.613C730.26,17.161,729.915,18.958,728.62,20.418z"/>
	<path fill-rule="evenodd" clip-rule="evenodd" fill="#991D1F" d="M729.399,54.928c0.243-0.011,0.483-0.043,0.72-0.1
		c1.532-1.266,3.389-0.822,5.132-0.986c2.505-0.142,4.726,0.736,6.863,1.916c1.232,0.77,2.465,1.539,3.697,2.311
		c0.816,0.956,1.632,1.91,2.449,2.865c1.15,1.947,1.939,4.729,5.031,2.17l0.135,0.135c0.313,0.434,0.498,1.06,0.086,1.334
		c-2.729,1.817-4.458,4.821-7.482,6.271c-0.307-0.207-0.498-0.496-0.589-0.852c-0.203-2.056,2.463-3.775,0.809-5.962
		c-1.883-2.487-3.977-4.805-6.935-6.063c-1.51-0.643-3.09-1.066-4.575,0.148c-0.298,0.154-0.615,0.242-0.95,0.266
		c-1.626,0.025-2.267-1.73-3.709-2.051c-0.313-0.126-0.59-0.305-0.834-0.535C729.073,55.466,729.125,55.177,729.399,54.928z"/>
	<path fill-rule="evenodd" clip-rule="evenodd" fill="#3F5E2D" d="M726.323,3.895c1.27,1.063,0.757,2.521,0.777,3.818
		c0.103,6.773,0.118,13.547-0.767,20.285c-0.837,0.297-1.506-0.063-2.149-0.545c-0.454-0.441-0.724-0.984-0.886-1.592
		c-0.101-0.422-0.157-0.846-0.192-1.277c0.44-4.833,0.801-9.668,0.675-14.525c-0.036-1.407,0.337-2.705,1.085-3.897
		c0.002-0.247,0.002-0.495,0-0.742C725.352,4.911,725.837,4.403,726.323,3.895z"/>
	<path fill-rule="evenodd" clip-rule="evenodd" fill="#355429" d="M736.942,30.918c-0.513,2.719,0.882,5.622-0.799,8.229
		c-1.269-0.239-2.811,0.267-3.593-1.315c-1.017-3.792-0.541-7.647-0.366-11.472c0.055-1.193,0.258-2.996,2.436-2.191
		C736.646,25.987,736.71,28.481,736.942,30.918z"/>
	<path fill-rule="evenodd" clip-rule="evenodd" fill="#38582A" d="M732.391,21.931c-0.507-0.254-1.014-0.508-1.521-0.763
		c-1.788-3.502-0.542-7.15-0.446-10.731c0.023-0.878,0.899-1.401,1.915-1.254c0.761,3.472,1.411,6.972,2.323,10.403
		C735.282,21.917,734.078,22.053,732.391,21.931z"/>
	<path fill-rule="evenodd" clip-rule="evenodd" fill="#37562A" d="M734.619,24.168c-1.814,0.252-1.484,1.661-1.491,2.84
		c-0.021,3.806-0.006,7.611-0.004,11.418c-0.162,0.066-0.325,0.135-0.487,0.203c-0.748-0.029-1.372-0.287-1.768-0.963
		c0.005-4.42,0.014-8.84,0.01-13.26c0-1.034,0.483-1.611,1.506-1.745C733.446,22.696,734.229,23.141,734.619,24.168z"/>
	<path fill-rule="evenodd" clip-rule="evenodd" fill="#3A5A2B" d="M732.338,9.183c-1.898,0.915-1.436,2.667-1.458,4.217
		c-0.038,2.589-0.01,5.18-0.01,7.769c-0.75-0.249-1.5-0.5-2.25-0.75c1.445-5.152-0.141-10.586,1.462-15.725
		C730.635,6.291,732.197,7.379,732.338,9.183z"/>
	<path fill-rule="evenodd" clip-rule="evenodd" fill="#45652F" d="M724.121,25.668c-0.005,0.263-0.01,0.525-0.015,0.788
		c-1.858,0.984-3.844,1.751-5.445,3.185c-1.346-0.352-2.113-1.004-1.294-2.481c2.29-4.3,3.338-8.696,1.208-13.411
		c-1.174-2.598,1.139-3.373,2.543-4.604c0.5-0.244,1-0.488,1.501-0.732c1.127,1.146,0.757,2.531,0.593,3.867
		c-0.425,3.46-0.176,6.933-0.235,10.399C722.957,23.851,723.154,24.895,724.121,25.668z"/>
	<path fill-rule="evenodd" clip-rule="evenodd" fill="#456530" d="M717.364,44.403c0-1.992,0-3.984-0.001-5.976
		c-0.213-0.907,0.272-0.944,0.941-0.758c1.361,2.396,2.858,4.726,3.707,7.387c0.249,3.669,0.525,7.341-1.649,10.632
		c-1.091-0.627-2.413-0.942-3.012-2.233C715.301,50.434,716.461,47.418,717.364,44.403z"/>
	<path fill-rule="evenodd" clip-rule="evenodd" fill="#42612E" d="M720.363,55.688c0.152-3.782,1.164-7.506,0.77-11.324
		c0.902-0.841,1.889-0.742,2.912-0.27c0.335,0.268,0.58,0.603,0.741,1c0.755,3.691,0.188,7.444,0.495,11.162
		c-0.511,1.729-1.566,2.441-3.35,1.786C721.408,57.257,720.886,56.473,720.363,55.688z"/>
	<path fill-rule="evenodd" clip-rule="evenodd" fill="#4A6B32" d="M718.042,37.676c-0.226,0.25-0.452,0.5-0.679,0.751
		c-1.174-1.837-1.686-4.082-3.543-5.508c-0.76-0.584-0.979-1.273-0.011-2.108c1.282-1.105,2.38-2.424,3.557-3.651
		c0,1.054,0.481,1.802,1.434,2.249C719.438,32.247,719.156,34.999,718.042,37.676z"/>
	<path fill-rule="evenodd" clip-rule="evenodd" fill="#496931" d="M717.364,44.403c-0.004,3.017-0.009,6.033-0.013,9.052
		c-1.164-0.177-2.22-0.566-2.993-1.514c-0.813-1.016-0.67-2.03,0.003-3.044C715.363,47.398,716.363,45.901,717.364,44.403z"/>
	<path fill-rule="evenodd" clip-rule="evenodd" fill="#B72623" d="M721.931,58.042c1.14-0.261,2.181-0.706,2.993-1.584
		c1.153-1.769,2.702-1.513,4.332-0.847c0.289,0.027,0.577,0.055,0.865,0.083c0.6,0.762,0.305,1.277-0.456,1.667
		c-2.561-0.076-4.51,1.63-6.802,2.347c-0.362,0.056-0.69-0.025-0.978-0.257c-0.288-0.027-0.575-0.057-0.864-0.086
		C721.325,58.924,721.627,58.483,721.931,58.042z"/>
	<path fill-rule="evenodd" clip-rule="evenodd" fill="#4C6D32" d="M714.361,48.897c0,1.014-0.001,2.029-0.003,3.044
		c-0.969-0.112-2.341-0.353-2.385-1.197C711.913,49.549,713.521,49.506,714.361,48.897z"/>
	<path fill-rule="evenodd" clip-rule="evenodd" fill="#89B03F" d="M788.67,114.129c-4.837-4.042-9.396-8.457-15.677-10.374
		c-3.808-1.162-5.033-0.306-4.736,3.738c0.072,0.992,0.129,1.997,0.055,2.986c-0.097,1.294-0.841,1.461-1.736,0.68
		c-1.031-0.9-2.203-1.77-2.892-2.908c-2.211-3.651-5.935-5.096-9.448-6.884c-1.082-0.869-0.584-1.989-0.539-3.071
		c0.132-3.154-1.312-5.935-2.212-8.845c0.179-0.873,0.885-1.474,1.581-1.153c4.211,1.936,9.295,1.888,12.741,5.555
		c0.208,0.91,1.052,1.591,1.04,2.064c-0.334-1.081-1.438-3.059,1.546-3.35c2.962,0.727,5.432,2.046,6.324,5.255
		c0.291,0.261,0.155,0.778,0.575,0.968c-0.244-0.492-0.458-0.998-0.631-1.525c-0.046-0.58,0.12-1.07,0.589-1.441
		c1.98-0.605,3.456-0.055,4.332,1.878c3.869,0.951,5.724,4.922,10.368,5.659c3.932,0.624,8.156,3.113,13.219,4.773
		c-3.422,1.295-6.076,0.688-8.639,0.745c-2.568,0.058-3.998,0.178-2.797,3.591C793.268,116.831,789.491,113.118,788.67,114.129z"/>
	<path fill-rule="evenodd" clip-rule="evenodd" fill="#3F5F2D" d="M805.845,102.914c0.984,0.503,1.757,1.217,2.227,2.232
		c-1.238-0.112-2.465,1.551-3.712,0.023c-3.768-1.949-6.918-4.862-10.676-6.828c-1.189-0.622-2.226-1.695-3.77-1.164
		c-0.357-0.011-0.663-0.141-0.925-0.381c-1.455-2.483-3.943-3.735-6.261-5.147c-4.663-2.844-9.117-6.006-13.739-8.917
		c-0.182-1.678,0.766-2.38,2.255-2.617c4.108,1.862,7.634,4.688,11.422,7.071c6.121,3.85,12.087,7.953,18.216,11.797
		C802.691,100.118,804.227,101.558,805.845,102.914z"/>
	<path fill-rule="evenodd" clip-rule="evenodd" fill="#365529" d="M779.582,97.702c-1.436-0.63-2.711-1.736-4.44-1.489
		c-2.146-0.599-3.496-2.497-5.534-3.343c-1.337-0.555-1.018-1.786-0.287-2.822c0.807-0.935,1.813-1.381,3.056-1.245
		c0.379,0.053,0.741,0.166,1.089,0.323c3.127,1.791,6.099,3.826,9.018,5.938c0.714,0.517,1.438,1.188,1.117,2.16
		c-0.286,0.866-1.024,0.967-1.797,0.469C781.063,97.695,780.322,97.698,779.582,97.702z"/>
	<path fill-rule="evenodd" clip-rule="evenodd" fill="#3A5A2B" d="M789.362,96.909c0.25,0,0.5,0,0.75,0
		c4.086,1.405,7.752,3.46,10.547,6.849c0.179,0.217,0.065,0.483-0.167,0.662c-0.171,0.132-0.385,0.134-0.646,0.002
		c-4.903-0.152-8.872-3.026-13.293-4.585c-1.396-0.492-0.378-1.408-0.209-2.153c0.063-0.169,0.128-0.336,0.19-0.506
		C787.396,96.238,788.328,96.026,789.362,96.909z"/>
	<path fill-rule="evenodd" clip-rule="evenodd" fill="#38582A" d="M781.803,97.692c2.359-0.556,1.029-1.285,0.08-1.955
		c-3-2.117-6.012-4.22-9.018-6.327c0.732-1.658,2.119-1.639,3.399-1.03c3.565,1.693,6.722,4.036,9.652,6.663
		c0.741,0.665,1.223,1.578,0.451,2.604c0,0-0.024,0.036-0.024,0.037C784.83,97.639,783.319,99.3,781.803,97.692z"/>
	<path fill-rule="evenodd" clip-rule="evenodd" fill="#3D5D2C" d="M799.846,104.421c-0.591-2.552-3.207-2.833-4.826-4.223
		c-1.483-1.273-3.26-2.207-4.907-3.29c0.06-1.057,0.609-1.242,1.443-0.754c4.518,2.648,9.307,4.916,12.804,9.015
		C802.849,104.958,801.177,105.713,799.846,104.421z"/>
	<path fill-rule="evenodd" clip-rule="evenodd" fill="#931E20" d="M751.855,89.34c2.751,3.622,3.099,7.72,2.38,12.027
		c-0.512,1.652-1.088,3.273-2.294,4.579c-0.729-0.292-1.253-0.793-1.558-1.52c0.521-0.603-0.043-1.181-0.048-1.771
		c-0.062-0.479-0.086-0.959-0.116-1.439c-0.055-1.002-0.376-1.938-0.688-2.881c-0.256-1.014-0.733-2.032,0.033-3.033
		c2.497,1.112,2.497,1.112,2.901,4.421c0.768-5.847-2.423-9.155-6.924-11.628c-2.042-1.121-4.165-1.557-6.385-0.323
		c-0.971,0.54-2.028,0.979-3.198,0.568c-1.434-0.76,0.237-1.636-0.089-2.446c0.399-1.112,1.238-1.538,2.359-1.535
		c3.481,0.059,4.603-3.213,6.868-4.868c1.407,0.011,1.719,1.046,1.987,2.119c0.006,0.345-0.067,0.677-0.209,0.991
		c-2.949,2.753,0.634,1.952,1.457,2.649c0.861,0.222,1.458,0.789,1.956,1.487C750.896,87.554,751.501,88.372,751.855,89.34z"/>
	<path fill-rule="evenodd" clip-rule="evenodd" fill="#CB2222" d="M732.328,98.395c3.093,1.882,6.785,2.862,9.042,6.004
		c-3.115,0.31-6.016,0.036-8.471-2.309C731.639,100.887,731.053,99.859,732.328,98.395z"/>
	<path fill-rule="evenodd" clip-rule="evenodd" fill="#421717" d="M728.582,108.06c-0.579-0.889-1.247-1.732-1.721-2.673
		c-1.149-2.28,0.617-1.645,1.719-1.648C729.417,105.18,729.93,106.62,728.582,108.06z"/>
	<path fill-rule="evenodd" clip-rule="evenodd" fill="#CB2522" d="M727.854,96.168c1.257,0.247,2.514,0.496,3.771,0.743
		c-0.891,0.837-1.811,2.058-3.022,1.841C727.364,98.533,728.07,97.069,727.854,96.168z"/>
	<path fill-rule="evenodd" clip-rule="evenodd" fill="#CB2522" d="M721.977,94.674c0.246-0.503,0.493-1.005,0.739-1.509
		c1.245-0.749,2.088,0.039,2.947,0.771C725.113,97.568,723.288,94.837,721.977,94.674z"/>
	<path fill-rule="evenodd" clip-rule="evenodd" fill="#C22322" d="M725.663,93.936c-0.983-0.258-1.965-0.514-2.948-0.771
		c0.006-0.252,0.012-0.505,0.018-0.757c1.418-0.001,2.918-0.198,3.636,1.498C726.134,93.918,725.898,93.928,725.663,93.936z"/>
	<path fill-rule="evenodd" clip-rule="evenodd" fill="#456630" d="M773.516,75.071c1.28,2.004,2.888,3.542,5.399,3.795
		c0.486,0.255,0.972,0.51,1.457,0.765c3.047,1.943,6.071,3.918,9.012,6.021c3.286,3.859,7.162,6.62,12.293,7.692
		c2.538,0.53,1.803,3.158,1.929,5.066c-1.575,1.28-2.82,0.15-4.043-0.624c-8.317-5.276-16.459-10.827-24.817-16.04
		c-1.288-0.804-2.451-1.751-2.681-3.411c-0.109-0.776-0.076-1.542,0.169-2.292C772.479,75.479,772.826,75.048,773.516,75.071z"/>
	<path fill-rule="evenodd" clip-rule="evenodd" fill="#BC1F20" d="M751.102,102.905c0,0.62-0.129,1.18-0.718,1.521
		c-6.099-4.542-13.092-7.583-19.501-11.605c-1.173-0.736-2.399-1.33-3.014-2.662c0.147-0.109,0.295-0.217,0.441-0.326
		c1.753-0.347,3.118,0.659,4.472,1.441c5.131,2.962,10.188,6.05,15.399,8.874C749.392,100.805,750.432,101.664,751.102,102.905z"/>
	<path fill-rule="evenodd" clip-rule="evenodd" fill="#9E2020" d="M725.108,89.435c-0.851-0.738-1.702-1.478-2.552-2.216
		c1.289-1.272,2.721-0.505,4.071-0.217c1.533,0.327,3.031,0.785,4.595,0.211c0.582-0.098,1.163-0.106,1.748-0.018
		c0.396,0.075,0.76,0.226,1.098,0.442c0.568,0.596,1.092,1.202,0.418,2.052c-0.851,0.596-1.823,0.658-2.813,0.646
		c-1.276,0.106-2.493-1.04-3.808-0.18l0.002,0.002C726.948,89.917,726.028,89.675,725.108,89.435z"/>
	<path fill-rule="evenodd" clip-rule="evenodd" fill="#921D20" d="M772.798,78.024c-0.479,0.79-0.959,1.58-1.438,2.369
		c-0.937,0.551-1.678,1.282-2.117,2.292c-0.193,0.853-0.82,1.405-1.376,2.012c-0.6,0.61-1.224,1.192-1.955,1.649
		c-2.254,0.957-4.223,2.926-7.012,1.992c-0.313-0.2-0.483-0.491-0.53-0.856c0.091-0.342,0.285-0.618,0.561-0.838
		c1.404-0.868,2.657-1.936,3.862-3.065c1.776-0.854,1.759-3.654,4.148-3.846c1.128,1.151,1.674,0.231,2.242-0.635
		c1.933-2.944,1.541-7.119-0.86-10.438c-0.889-1.229-2.656-2.018-2.209-3.997c2.071-0.424,2.354,2.885,4.558,2.186
		c1.024,1.383,2.377,2.608,2.177,4.574c-0.112,1.492-0.101,2.984-0.008,4.478C772.825,76.609,772.813,77.316,772.798,78.024z"/>
	<path fill-rule="evenodd" clip-rule="evenodd" fill="#9B1B1E" d="M772.84,75.901c-1.101-1.495-1.106-2.987,0.008-4.478
		c0.739,1.121,0.681,2.39,0.669,3.648C773.29,75.347,773.064,75.625,772.84,75.901z"/>
	<path fill-rule="evenodd" clip-rule="evenodd" fill="#BA1F20" d="M766.878,79.679c-1.065,1.657-1.795,3.594-3.749,4.514
		c-2.125-3.698-3.061-7.801-4.052-11.879c0.582-0.929-0.139-1.231-0.776-1.576c-0.576-0.632-0.879-1.402-1.151-2.189
		c-0.601-1.535-1.811-2.662-2.693-4.009c-0.335-0.383-0.594-0.789-0.368-1.325c2.499-0.644,4.513,0.972,6.769,1.456
		c2.002-0.018,2.76,1.48,3.569,2.92c0.693,3.961,3.004,7.534,2.831,11.708C767.132,79.426,767.005,79.552,766.878,79.679z"/>
	<path fill-rule="evenodd" clip-rule="evenodd" fill="#7E1324" d="M767.357,82.187c-0.8-0.796-0.358-1.7-0.479-2.508l-0.021-0.028
		c0.742-4.425-1.015-8.222-3.003-11.961c-1-1.006-1.999-2.012-2.998-3.02c-0.21-0.715-0.578-1.43,0.715-1.524
		c1.752-0.129,3.078,0.868,4.542,1.518"/>
	<path fill-rule="evenodd" clip-rule="evenodd" fill="#DE2725" d="M754.088,63.214c0.264,0.249,0.527,0.5,0.791,0.75
		c0.13,2.439-1.887,3.221-3.397,4.385c-3.377,2.604-4.197,5.955-2.331,9.602c-0.191,1.458-0.711,2.787-1.56,3.988
		c-0.331,0.219-0.657,0.221-0.977-0.023c-0.484-0.776-0.969-1.552-1.454-2.328c-1.748-3.121-1.543-6.076,0.751-8.854
		c1.938-3.066,5.175-4.83,7.515-7.494C753.646,63.209,753.867,63.202,754.088,63.214z"/>
	<path fill-rule="evenodd" clip-rule="evenodd" fill="#D32623" d="M713.633,74.489c0.364-3.462,0.415-7.014,2.872-9.866
		c0.289,0.016,0.579,0.03,0.868,0.047c0.213,0.319,0.298,0.672,0.26,1.054c-2.12,4.704-2.542,9.436-0.287,14.237
		c0.311,0.661,0.482,1.405,0.029,2.117c-0.368,0.232-0.698,0.188-0.99-0.133c-0.227-0.22-0.454-0.439-0.681-0.659
		c-1.281-0.794-1.761-2.075-2.11-3.438c-0.153-0.657-0.314-1.313-0.432-1.981C713.142,75.347,713.229,74.864,713.633,74.489z"/>
	<path fill-rule="evenodd" clip-rule="evenodd" fill="#D32623" d="M721.886,59.452c0.244-0.02,0.489-0.032,0.735-0.038
		c1.058-0.699,1.795-0.218,2.426,0.657c-0.436,3.055-2.992,2.943-5.142,3.444c-0.394,0.016-0.742-0.105-1.045-0.357
		C718.75,61.009,721.302,61.035,721.886,59.452z"/>
	<path fill-rule="evenodd" clip-rule="evenodd" fill="#D42925" d="M718.86,63.158c0.25,0.001,0.5,0.003,0.75,0.005
		c1.127,1.43,0.514,2.625-0.506,3.767c-1.292,0.313-1.904-0.152-1.732-1.515c0-0.248,0-0.497,0.001-0.746
		C717.869,64.166,718.364,63.662,718.86,63.158z"/>
	<path fill-rule="evenodd" clip-rule="evenodd" fill="#42622E" d="M724.121,25.668c-2.213,0.184-2.273-1.254-2.264-2.879
		c0.027-4.806-0.17-9.619,0.761-14.376c0.504-0.996,1.255-1.745,2.248-2.252C724.863,12.673,725.074,19.194,724.121,25.668z"/>
	<path fill-rule="evenodd" clip-rule="evenodd" fill="#638B3D" d="M714.3,77.584c0.468,1.233,0.937,2.467,1.404,3.701
		c-3.908,3.138-4.739,7.197-3.554,11.86c0.267,0.786-0.091,0.934-0.77,0.755c-0.567-1.342-1.134-2.685-1.812-4.29
		c-4.989,4.472-2.015,9.392-1.002,14.438c-2.073-0.698-1.632-2.427-2.416-3.338c-0.607-0.706-0.477-2.471-2.216-1.52
		c0.589-2.228,1.047-4.5,1.804-6.67c0.71-2.035-0.246-2.377-1.89-2.327c-0.426-0.755,0.023-1.302,0.434-1.86
		c1.03-1.074,2.706-1.306,3.501-2.691c1.41-1.868,2.21-4.104,3.583-5.977C712.076,78.698,712.45,77.03,714.3,77.584z"/>
	<path fill-rule="evenodd" clip-rule="evenodd" fill="#E02725" d="M717.372,65.415c0.493,0.498,0.987,0.996,1.481,1.493
		c-1.323,3.26-1.206,6.424,0.641,9.471c-0.702,2.476-1.445,4.96,1.685,6.433c3.378,0.404,6.308,1.972,9.246,3.514
		c0.634,0.333,1.411,0.58,1.197,1.57c-3.177,1.854-6.005-0.967-9.065-0.676c-0.711-0.505-1.422-1.012-2.133-1.518
		c-1.264-1.057-3.026-1.708-3.064-3.763C714.496,76.428,713.384,70.919,717.372,65.415z"/>
	<path fill-rule="evenodd" clip-rule="evenodd" fill="#981E20" d="M717.359,81.939c1.021,1.254,2.042,2.509,3.063,3.763
		c-2.41-0.107-3.084-2.079-4.036-3.757C716.709,81.943,717.034,81.941,717.359,81.939z"/>
	<path fill-rule="evenodd" clip-rule="evenodd" fill="#739B3E" d="M711.381,93.901c0.256-0.252,0.512-0.503,0.769-0.755
		c0.992,0.873,0.796,1.946,0.54,3.104C711.559,95.801,711.515,94.826,711.381,93.901z"/>
	<path fill-rule="evenodd" clip-rule="evenodd" fill="#748661" d="M690.357,86.4c0.773-0.989,1.546-1.979,2.32-2.968
		c0.721-0.267,1.442-0.533,2.163-0.799c1.6-0.085,1.521,1.193,1.361,2.052c-1.344,7.222-2.653,14.458-4.929,21.467
		c-0.15,0.463-0.563,0.817-0.902,1.184c-0.247,0.047-0.494,0.094-0.742,0.141c-0.491-0.026-0.981-0.055-1.472-0.083
		c-0.535-0.73-1.07-1.461-1.605-2.19C687.37,98.843,689.782,92.808,690.357,86.4z"/>
	<path fill-rule="evenodd" clip-rule="evenodd" fill="#718360" d="M690.371,107.335c1.625-7.464,3.232-14.933,4.901-22.387
		c0.202-0.902,0.469-1.68-0.431-2.314c0.766-0.489,1.532-0.978,2.298-1.466c0.504-0.026,1.007-0.054,1.511-0.082
		c0,0-0.055,0.146-0.055,0.146c0.684,0.699,0.762,1.564,0.566,2.442c-1.651,7.414-3.087,14.878-5.041,22.225
		c-0.024,0.216-0.04,0.432-0.049,0.647c-0.233,0.042-0.465,0.091-0.695,0.147C692.375,106.909,691.373,107.123,690.371,107.335z"/>
	<path fill-rule="evenodd" clip-rule="evenodd" fill="#6F815F" d="M694.121,105.9c-1.078-4.477,1.342-8.439,1.926-12.676
		c0.556-4.038,1.677-7.998,2.549-11.992c0.749,0.006,1.498,0.011,2.247,0.017c0.269,0.453,0.538,0.903,0.807,1.354
		c1.12,2.586-0.587,5.091-0.207,7.655c-1.799,3.789-2.718,7.839-3.524,11.924c-0.278,0.708-0.556,1.416-0.834,2.122
		C696.096,104.835,695.108,105.368,694.121,105.9z"/>
	<path fill-rule="evenodd" clip-rule="evenodd" fill="#6D7F5E" d="M697.918,102.182c-1.029-4.503,0.777-8.309,2.957-12.021
		c0.815-0.664,1.611-0.672,2.386,0.068C703.292,95.024,701.333,98.928,697.918,102.182z"/>
	<path fill-rule="evenodd" clip-rule="evenodd" fill="#6C7F5D" d="M703.261,90.229c-0.795-0.022-1.59-0.046-2.386-0.068
		c-1.118-2.66,0.494-5.04,0.774-7.558c0.24,0.027,0.481,0.05,0.722,0.065c0.229,0.26,0.459,0.519,0.689,0.778
		c1.081,0.804,1.294,2.029,1.575,3.224c0.155,0.689-0.003,1.377-0.022,2.065c-0.254,0.485-0.508,0.972-0.763,1.458
		C703.653,90.212,703.457,90.225,703.261,90.229z"/>
	<path fill-rule="evenodd" clip-rule="evenodd" fill="#768962" d="M690.357,86.4c0.218,0.29,0.653,0.604,0.624,0.866
		c-0.672,6.175-1.51,12.314-4.429,17.936c-1.118-1.016-1.431-2.353-1.509-3.782c-0.25-4.324,1.215-8.216,3.038-12.016
		C688.839,88.403,689.598,87.401,690.357,86.4z"/>
	<path fill-rule="evenodd" clip-rule="evenodd" fill="#365429" d="M703.925,87.147c-0.288-1.234-0.576-2.468-0.864-3.701
		c1.382-0.579,1.368-1.806,1.631-3.054c1.144-5.423,2.525-10.798,3.639-16.227c0.308-1.499,1.039-1.789,2.281-1.73
		c-0.704,2.983-1.479,5.952-2.077,8.957c-0.253,1.274-0.629,2.711,0.636,3.794c0.08,0.174,0.159,0.349,0.24,0.521
		c-0.038,0.187-0.078,0.373-0.112,0.562c-1.655,2.147-1.627,4.857-2.459,7.279C706.326,85.047,706.407,87.183,703.925,87.147z"/>
	<path fill-rule="evenodd" clip-rule="evenodd" fill="#567B37" d="M709.143,75.883c0.001-0.232,0.011-0.466,0.028-0.697
		c0.235-0.006,0.469-0.017,0.703-0.034c1.315,0.13,2.562-0.128,3.76-0.664c0.018,0.427,0.035,0.854,0.052,1.28
		C712.207,77.207,710.69,77.142,709.143,75.883z"/>
	<path fill-rule="evenodd" clip-rule="evenodd" fill="#678F3D" d="M740.636,30.942c-0.255-0.258-0.511-0.516-0.766-0.772
		c0.747-0.898,1.494-1.798,2.775-3.339C742.52,29.142,741.93,30.221,740.636,30.942z"/>
	<path fill-rule="evenodd" clip-rule="evenodd" fill="#355429" d="M742.115,55.758c-2.286-0.356-4.572-0.713-6.858-1.068
		c-3.111,0.244-4.252-1.471-3.956-4.261c0.406-3.819-1.265-7.87,1.24-11.455c0.852-0.188,1.705-0.368,2.315,0.519
		c0.935,2.121,0.245,4.269,0.116,6.419c-0.085,1.426-0.325,2.905,0.476,4.24c0.678,0.77,1.539,1.315,2.372,1.895
		c0.822,0.563,1.647,1.126,2.119,2.052C740.978,54.239,741.751,54.729,742.115,55.758z"/>
	<path fill-rule="evenodd" clip-rule="evenodd" fill="#315027" d="M737.646,52.676c-0.759-0.504-1.518-1.008-2.278-1.511
		c-0.72-2.066-0.312-4.177-0.155-6.256c0.102-1.354,0.405-2.796,2.326-2.71c1.853,2.947,2.054,6.59,4.023,9.497
		c0.685,1.013,0.29,1.629-0.929,1.696C739.699,52.899,738.528,53.389,737.646,52.676z"/>
	<path fill-rule="evenodd" clip-rule="evenodd" fill="#335228" d="M737.54,42.2c-1.553,0.74-1.405,2.153-1.429,3.525
		c-0.032,1.84,0.323,3.739-0.742,5.44c-2.947-1.818-1.274-4.598-1.213-6.901c0.037-1.402,0.471-2.877,0.464-4.354
		c0.261-0.31,0.501-0.28,0.723,0.043C735.892,40.883,737.336,40.934,737.54,42.2z"/>
	<path fill-rule="evenodd" clip-rule="evenodd" fill="#517535" d="M737.646,52.676c1.04,0.058,2.185-0.324,2.987,0.717
		c-0.233,0.236-0.465,0.471-0.697,0.705C739.095,53.75,738.171,53.536,737.646,52.676z"/>
	<path fill-rule="evenodd" clip-rule="evenodd" fill="#5B823A" d="M735.343,39.954c-0.24-0.025-0.481-0.04-0.723-0.043
		c-0.323-0.592-0.877-0.727-1.486-0.755c-0.229-0.161-0.305-0.322-0.229-0.483c0.075-0.163,0.151-0.244,0.228-0.244l-0.008-0.004
		c1.05,0.057,2.203-0.314,3.019,0.723C735.877,39.416,735.61,39.684,735.343,39.954z"/>
	<path fill-rule="evenodd" clip-rule="evenodd" fill="#708360" d="M724.838,27.256c0.499,0.248,0.998,0.493,1.496,0.741
		c0.323,1.306,0.603,2.631,1.529,3.687c-0.039,3.505,0.463,7.048-0.749,10.469c-0.688,1.189-0.602,3.377-3.017,2.344l0.047-0.162
		C722.082,40.142,722.5,29.836,724.838,27.256z"/>
	<path fill-rule="evenodd" clip-rule="evenodd" fill="#3E5D2C" d="M724.098,44.497c1.61-0.004,2.028-1.541,3.017-2.344
		c0.731,2.487,0.913,4.895,0.25,7.529c-0.465,1.849-1.395,4.593,2.035,5.246c-0.044,0.229-0.092,0.456-0.143,0.684
		c-1.445,0.281-2.889,0.564-4.333,0.846C723.219,52.57,724.57,48.469,724.098,44.497z"/>
	<path fill-rule="evenodd" clip-rule="evenodd" fill="#38572A" d="M733.132,38.428c-0.014,0.242-0.013,0.485,0.001,0.728
		c-1.613,4.47-0.474,9.084-0.679,13.626c-0.083,1.84,2.058,0.979,2.804,1.91c-1.714,0.045-3.426,0.092-5.138,0.137
		c0-4.564-0.025-9.131,0.017-13.695c0.011-1.184-0.404-2.502,0.733-3.467C731.624,37.92,732.378,38.174,733.132,38.428z"/>
	<path fill-rule="evenodd" clip-rule="evenodd" fill="#BB1F20" d="M729.391,57.159c0.584-0.318,0.714-0.863,0.73-1.464
		c2.067-0.625,2.07,2.212,3.75,2.236c1.304,0.569,1.627,1.786,1.965,2.989c1.88,6.688,4.068,13.285,5.882,19.996
		c-0.489,1.832-1.083,3.555-3.53,3.277c-2.165-5.314-4.229-10.66-4.901-16.414c0.909-0.856,0.108-1.179-0.507-1.559
		c-1.106-1.289-1.527-2.917-2.21-4.409c-1.43-1.149-4.514-1.705-1.624-4.433C729.093,57.304,729.242,57.232,729.391,57.159z"/>
	<path fill-rule="evenodd" clip-rule="evenodd" fill="#801723" d="M734.622,57.912c-0.505-1.14-0.108-1.448,1.1-1.536
		c3.867-0.281,11.108,4.791,12.142,8.569c0.603,2.203-1.645,3.189-2,4.968c-0.742,0.587,0.021,1.783-0.993,2.328
		c-1.818-0.574-1.597-2.621-2.624-3.77c-1.15-1.44-1.691-3.279-3.023-4.6C737.564,61.981,735.782,60.186,734.622,57.912z"/>
	<path fill-rule="evenodd" clip-rule="evenodd" fill="#B61E1F" d="M734.622,57.912c2.38,1.128,3.27,3.737,5.243,5.271
		c1.276,4.779,3.056,9.424,3.858,14.335c-0.25,1.555-0.016,3.432-2.357,3.622c-2.772-4.911-3.366-10.549-5.228-15.766
		c-0.871-2.439-1.518-4.959-2.266-7.442C734.121,57.924,734.372,57.918,734.622,57.912z"/>
	<path fill-rule="evenodd" clip-rule="evenodd" fill="#881722" d="M741.365,81.139c1.209-0.949,1.549-2.252,1.514-3.709
		c0.474-2.047-0.083-4.023-0.461-6.001c-0.253-1.324-0.626-2.614,0.442-3.763c1.147,1.031,1.017,2.641,1.771,3.88
		c0.41-0.545,0.821-1.089,1.232-1.634c0.016,0.272,0.032,0.546,0.047,0.819c-0.842,2.902-0.966,5.865-0.751,8.856
		c-1.446,2.819-2.748,5.826-6.801,5.306c-0.184-0.162-0.241-0.32-0.172-0.473c0.067-0.151,0.133-0.227,0.198-0.227
		C739.855,83.642,740.304,82.092,741.365,81.139z"/>
	<path fill-rule="evenodd" clip-rule="evenodd" fill="#748661" d="M724.838,27.256c-1.528,5.641-0.363,11.391-0.694,17.079
		c-1.004,0.01-2.008,0.019-3.012,0.028c-1.432-2.043-2.932-4.055-3.09-6.688c-0.153-2.793-0.311-5.587,0.758-8.268
		c0.643-3.008,2.853-3.197,5.305-2.952C724.35,26.723,724.594,26.991,724.838,27.256z"/>
	<path fill-rule="evenodd" clip-rule="evenodd" fill="#C42523" d="M724.861,60.159c-0.747-0.248-1.494-0.497-2.24-0.745
		c2.127-1.142,3.816-3.597,6.77-2.255l-0.033,0.014C727.856,58.165,727.249,60.502,724.861,60.159z"/>
	<path fill-rule="evenodd" clip-rule="evenodd" fill="#638A3D" d="M751.855,89.34c-0.904-0.547-1.763-1.14-2.173-2.18
		c3.074-1.544,5.734,0.694,8.612,0.936c3.672,0.831,7.402,1.287,11.143,1.685c0.133,0.137,0.265,0.274,0.396,0.413
		c-0.896,1.409-0.297,2.216,1.081,2.74c1.739,0.661,3.177,1.722,4.227,3.278c-0.005,0.476-0.01,0.95-0.014,1.426
		c0.311,0.8-0.076,0.92-0.745,0.766c-0.957-2.959-3.513-4.085-6.025-5.262c-2.104-1.695-1.378,2.189-2.969,1.505
		C761.578,91.092,756.597,90.522,751.855,89.34z"/>
	<path fill-rule="evenodd" clip-rule="evenodd" fill="#638B3D" d="M765.389,94.647c1.054-0.374,0.663-3.601,2.969-1.505
		c-3.085,0.582-0.135,2.647-1.001,3.858C766.363,96.512,765.935,95.528,765.389,94.647z"/>
	<path fill-rule="evenodd" clip-rule="evenodd" fill="#638B3D" d="M774.383,98.404c0.248-0.255,0.496-0.511,0.745-0.766
		c0.913,0.889,1.088,2.029,1.309,3.34C774.982,100.513,774.929,99.274,774.383,98.404z"/>
	<path fill-rule="evenodd" clip-rule="evenodd" fill="#3C5B2B" d="M767.688,84.178c0.306-0.718,0.817-1.222,1.554-1.493
		c0.886-0.048,1.661,0.139,2.439,0.655c5.238,3.477,10.48,6.952,15.796,10.309c1.308,0.825,2.045,1.715,1.886,3.26
		c-1.087-0.117-2.058,0.241-2.994,0.738c-1.937-4.128-10.23-9.188-13.503-8.237C772.304,86.513,768.899,86.431,767.688,84.178z"/>
	<path fill-rule="evenodd" clip-rule="evenodd" fill="#801423" d="M735.357,87.898c1.313,0.161,2.402-0.451,3.527-0.983
		c3.903-1.844,8.013-0.324,12.438,4.573c2.48,2.745,2.911,7.575,0.831,11.033c-0.595-2.58,0.299-5.568-2.539-7.108
		c-3.445-0.481-5.63-3.415-8.77-4.492c-1.565-1.52-4.166-0.729-5.615-2.507C735.271,88.243,735.314,88.07,735.357,87.898z"/>
	<path fill-rule="evenodd" clip-rule="evenodd" fill="#C12021" d="M738.385,84.195c-0.007,0.233-0.016,0.467-0.025,0.7
		c-1.067,0.037-1.826,0.531-2.254,1.518c-1.586,0.242-1.907-0.83-2.114-2.024c0.454-2.016-0.254-3.841-0.96-5.666
		c-0.555-3.562-2.404-6.804-2.576-10.461c0.726-1.499,1.769-2.192,3.416-1.342C734.531,72.899,737.716,78.217,738.385,84.195z"/>
	<path fill-rule="evenodd" clip-rule="evenodd" fill="#B61E1F" d="M731.62,89.42c1-0.006,2-0.014,3.001-0.021
		c0.633-0.595,1.379-0.327,2.096-0.273c2.838,2.401,6.252,3.887,9.357,5.864c1.551,0.988,3.242,1.805,4.297,3.419
		c0.518,0.933,0.873,1.906,0.744,2.999c-2.493,0.334-4.069-1.646-5.932-2.637c-4.229-2.251-8.4-4.664-12.405-7.327
		C732.061,90.967,731.229,90.54,731.62,89.42z"/>
	<path fill-rule="evenodd" clip-rule="evenodd" fill="#B11D1F" d="M750.371,98.41c-3.967-2.237-7.924-4.492-11.909-6.697
		c-0.945-0.523-1.566-1.171-1.597-2.284c1.659-0.723,2.983,0.593,4.5,0.738c2.97,1.401,5.73,3.132,8.248,5.246
		C749.866,96.412,750.118,97.411,750.371,98.41z"/>
	<path fill-rule="evenodd" clip-rule="evenodd" fill="#BC1F20" d="M731.62,89.42c4.011,3.974,9.319,5.94,13.938,8.975
		c1.755,1.151,3.699,2.018,5.558,3.014c-0.005,0.499-0.01,0.997-0.015,1.496c-6.384-3.697-12.752-7.423-19.166-11.067
		c-1.267-0.719-2.708-1.129-4.069-1.681C728.922,88.917,730.354,89.588,731.62,89.42z"/>
	<path fill-rule="evenodd" clip-rule="evenodd" fill="#C12723" d="M758.452,88.586c-3.067,0.407-5.793-1.28-8.77-1.425
		c-0.438-0.521-0.876-1.039-1.314-1.56c-1.355-0.46-2.599-0.993-1.833-2.827c0.026-0.287,0.053-0.573,0.079-0.859
		c0.248,0.008,0.496,0.015,0.744,0.018c1.781,0.629,3.516,1.397,5.378,1.789c1.858,1.356,4.198,1.896,5.921,3.484
		c0.001,0.26,0.002,0.519,0.002,0.778c0.206,0.221,0.243,0.384,0.113,0.488C758.68,88.548,758.573,88.586,758.452,88.586z"/>
	<path fill-rule="evenodd" clip-rule="evenodd" fill="#C92322" d="M734.615,84.152c0.007,1.075,0.498,1.834,1.49,2.261
		c0.793,1.02-0.868,0.804-0.748,1.485l-0.008-0.001c-0.475,0.483-0.965,0.425-1.464,0.041c-0.272-0.022-0.544-0.044-0.816-0.066
		c-0.415-0.278,0.022,0.146-0.288-0.221c-1.038-1.229-4.146-1.3-3.214-3.291C730.36,82.662,732.857,83.735,734.615,84.152z"/>
	<path fill-rule="evenodd" clip-rule="evenodd" fill="#3C4926" d="M746.535,82.775c0.61,0.942,1.221,1.885,1.831,2.827
		c-1.573,0.983-2.593-0.782-3.984-0.824c-0.51-0.016-0.769-0.623-0.452-1.114C744.545,82.715,745.241,81.815,746.535,82.775z"/>
	<path fill-rule="evenodd" clip-rule="evenodd" fill="#EC3E29" d="M734.615,84.152c-1.452,1.368-3.161-0.093-4.879,0.267
		c0.893,1.587,2.857,1.811,3.334,3.454c-0.483,0.008-0.966,0.016-1.448,0.022c-3.67-1.672-7.122-3.908-11.262-4.366
		c0.839-1.225,2.236-0.853,3.388-1.185c2.281-0.657,3.451-2.243,2.773-4.482c-0.644-2.125-2.474-2.564-4.562-1.964
		c-1.017,0.293-1.872,1.364-3.104,0.687c0.006-0.943-0.58-1.562-1.145-2.229c-2.459-2.902-0.659-5.181,1.143-7.447
		c0.252-1.248,0.505-2.497,0.757-3.745c1.596-1.271,4.24-0.711,5.25-3.004c1.705-0.687,2.36-2.953,4.497-2.986
		c-0.304,0.875-0.608,1.751-0.917,2.645c0.902,0.804,2.438-0.201,3.175,1.088c-0.133,1.925-2.042,4.363,1.507,5.228
		c0.297,0.217,1.381-0.313,0.748,0.787c-1.197,0.1-2.231,0.531-3.01,1.48c-0.88,4.048,0.564,7.439,2.987,10.552
		C734.659,80.603,736.091,82.163,734.615,84.152z"/>
	<path fill-rule="evenodd" clip-rule="evenodd" fill="#931E20" d="M733.885,87.938c0.488-0.014,0.977-0.027,1.465-0.041
		c1.735,1.472,4.419,0.43,6.016,2.27c-1.5-0.246-3-0.493-4.5-0.739c-0.749-0.009-1.497-0.018-2.244-0.027
		C734.375,88.913,734.13,88.425,733.885,87.938z"/>
	<path fill-rule="evenodd" clip-rule="evenodd" fill="#EC3E29" d="M758.657,87.207c-2.416-0.217-4.519-1.064-6.077-3.011
		c0.041-0.503,0.285-0.921,0.515-1.355c1.777-3.358,1.28-4.208-2.579-4.404c-0.601-0.031-1.23,0.111-1.678-0.455
		c-2.945-2.386-2.079-8.285,1.701-10.182c1.865-0.935,3.153-2.265,4.34-3.836c1.18,1.357,3.096,2.221,2.983,4.444
		c-0.693,1.065,0.089,1.623,0.762,2.22c0.311,0.211,1.399-0.308,0.751,0.802c-2.014,2.568-2.377,5.318-0.028,7.716
		c2.355,2.404,2.794,4.511,0.244,6.939c-0.208,0.198-0.087,0.718-0.262,1.055C759.105,87.161,758.882,87.183,758.657,87.207z"/>
	<path fill-rule="evenodd" clip-rule="evenodd" fill="#C12021" d="M759.329,87.139c-0.534-0.493-1.068-0.986-1.806-1.669
		c0.932-0.978,3.137-0.322,3.226-2.24c0.081-1.73-1.277-2.48-2.341-3.514c-2.767-2.688-2.263-6.536,0.967-8.287
		c1.371,4.22,3.36,8.256,3.754,12.763C762.061,85.43,761.037,86.726,759.329,87.139z"/>
	<path fill-rule="evenodd" clip-rule="evenodd" fill="#375128" d="M758.452,88.586c0.062-0.203,0.13-0.404,0.207-0.602
		c2.829,0.306,4.873-1.795,7.4-2.414c1.253,1.548,3.671,2.141,3.789,4.62C765.842,91.128,762.164,89.74,758.452,88.586z"/>
	<path fill-rule="evenodd" clip-rule="evenodd" fill="#AB1C1F" d="M763.854,67.69c3.625,3.329,4.733,7.288,3.003,11.961
		C766.435,75.519,764.015,71.888,763.854,67.69z"/>
	<path fill-rule="evenodd" clip-rule="evenodd" fill="#C42221" d="M758.624,70.627c-0.695-0.057-1.631,0.315-1.931-0.589
		c-0.292-0.881,0.531-1.257,1.169-1.631C758.116,69.148,758.37,69.887,758.624,70.627z"/>
	<path fill-rule="evenodd" clip-rule="evenodd" fill="#F17B7D" d="M748.838,77.981c0.346-0.117,0.684-0.278,1.039-0.343
		c1.936-0.353,3.996-0.903,5.062,1.493c1.117,2.514-0.639,3.808-2.358,5.064c-2.123,0.129-4.136,0.002-5.222-2.263
		C747.41,80.451,747.702,79.058,748.838,77.981z"/>
	<path fill-rule="evenodd" clip-rule="evenodd" fill="#314F27" d="M709.143,75.883c1.514-0.037,3.028-0.075,4.542-0.114
		c0.518,0.498,0.704,1.108,0.615,1.814c-3.076,2.19-3.551,6.162-6.012,8.771c-2.048-0.363-1.563-1.991-1.333-3.161
		c0.486-2.479,0.711-5.07,2.167-7.272L709.143,75.883z"/>
	<path fill-rule="evenodd" clip-rule="evenodd" fill="#345228" d="M709.122,75.921c0.087,2.287-0.82,4.37-1.298,6.544
		c-0.284,1.292-0.657,2.715,0.466,3.891c-0.539,1.854-2.563,1.412-3.676,2.379c-0.618-0.36-0.735-0.939-0.689-1.588
		c2.536-1.979,2.232-5.073,2.854-7.735C707.154,77.808,707.697,76.659,709.122,75.921z"/>
	<path fill-rule="evenodd" clip-rule="evenodd" fill="#F17C7E" d="M718.855,76.584c2.275-1.571,4.537-3.159,7.356-1.064
		c1.603,1.191,1.994,2.74,1.417,4.572c-1.04,3.296-3.645,3.625-6.531,3.398c-0.243-0.019-0.492,0.023-0.737,0.038
		C717.382,81.75,717.094,79.389,718.855,76.584z"/>
	<path fill-rule="evenodd" clip-rule="evenodd" fill="#C12021" d="M733.123,66.132c-1.234,0-2.469,0-4.004,0
		c0.902-1.89,1.7-3.558,2.497-5.228C731.323,62.875,732.991,64.282,733.123,66.132z"/>
	<path fill-rule="evenodd" clip-rule="evenodd" fill="#B01D1F" d="M742.86,67.667c-0.089,3.255,2.015,6.505,0.02,9.764
		c-0.676-4.818-3.621-9.157-3.015-14.248C740.863,64.676,741.862,66.172,742.86,67.667z"/>
	<path fill-rule="evenodd" clip-rule="evenodd" fill="#C62121" d="M733.848,78.952c-4.172-3.039-5.453-7.564-2.987-10.552
		C732.236,71.81,733.434,75.27,733.848,78.952z"/>
	<path fill-rule="evenodd" clip-rule="evenodd" fill="#411717" d="M722.613,72.782c-1.199,0.248-1.543-0.354-1.5-1.434
		c0.063-1.613,1.014-2.946,2.248-3.44c1.063-0.426,2.056,0.837,2.122,2.03C725.587,71.824,724.084,72.349,722.613,72.782z"/>
	<path fill-rule="evenodd" clip-rule="evenodd" fill="#4D1918" d="M753.38,73.754c-0.089,1.329-1.195,1.806-2.428,2.082
		c-0.856,0.192-0.941-0.36-0.949-1.066c-0.015-1.368,0.715-2.438,1.802-2.833C752.508,71.681,753.338,72.522,753.38,73.754z"/>
</g>
</svg>
